<svg width="250" height="250" viewBox="0 0 250 250" fill="none" xmlns="http://www.w3.org/2000/svg">
<rect width="250" height="250" fill="white"/>
<path d="M17.2415 25.862C17.2415 23.5757 18.1497 21.383 19.7664 19.7663C21.3831 18.1496 23.5758 17.2413 25.8621 17.2413V25.862H17.2415Z" fill="black"/>
<path d="M25.8621 17.2413H34.4828V25.862H25.8621V17.2413Z" fill="black"/>
<path d="M34.4828 17.2413H43.1035V25.862H34.4828V17.2413Z" fill="black"/>
<path d="M43.1035 17.2413H51.7242V25.862H43.1035V17.2413Z" fill="black"/>
<path d="M51.7242 17.2413H60.3449V25.862H51.7242V17.2413Z" fill="black"/>
<path d="M60.3449 17.2413H68.9656V25.862H60.3449V17.2413Z" fill="black"/>
<path d="M68.9656 17.2413C71.2519 17.2413 73.4446 18.1496 75.0613 19.7663C76.678 21.383 77.5863 23.5757 77.5863 25.862H68.9656V17.2413Z" fill="black"/>
<path d="M86.207 21.5517C86.207 20.4085 86.6611 19.3122 87.4694 18.5038C88.2778 17.6955 89.3741 17.2413 90.5173 17.2413C91.6605 17.2413 92.7568 17.6955 93.5652 18.5038C94.3735 19.3122 94.8277 20.4085 94.8277 21.5517V25.862H86.207V21.5517Z" fill="black"/>
<path d="M116.379 17.2413C115.236 17.2413 114.14 17.6955 113.332 18.5038C112.523 19.3122 112.069 20.4085 112.069 21.5517C112.069 22.6949 112.523 23.7912 113.332 24.5996C114.14 25.4079 115.236 25.862 116.379 25.862H120.69V17.2413H116.379Z" fill="black"/>
<path d="M125 17.2413C126.143 17.2413 127.24 17.6955 128.048 18.5038C128.856 19.3122 129.31 20.4085 129.31 21.5517C129.31 22.6949 128.856 23.7912 128.048 24.5996C127.24 25.4079 126.143 25.862 125 25.862H120.69V17.2413H125Z" fill="black"/>
<path d="M137.931 25.862C137.931 23.5757 138.839 21.383 140.456 19.7663C142.073 18.1496 144.265 17.2413 146.552 17.2413V25.862H137.931Z" fill="black"/>
<path d="M150.862 17.2413C152.005 17.2413 153.102 17.6955 153.91 18.5038C154.718 19.3122 155.172 20.4085 155.172 21.5517C155.172 22.6949 154.718 23.7912 153.91 24.5996C153.102 25.4079 152.005 25.862 150.862 25.862H146.552V17.2413H150.862Z" fill="black"/>
<path d="M172.414 25.862C172.414 23.5757 173.322 21.383 174.939 19.7663C176.556 18.1496 178.748 17.2413 181.035 17.2413V25.862H172.414Z" fill="black"/>
<path d="M181.035 17.2413H189.655V25.862H181.035V17.2413Z" fill="black"/>
<path d="M189.655 17.2413H198.276V25.862H189.655V17.2413Z" fill="black"/>
<path d="M198.276 17.2413H206.897V25.862H198.276V17.2413Z" fill="black"/>
<path d="M206.897 17.2413H215.517V25.862H206.897V17.2413Z" fill="black"/>
<path d="M215.517 17.2413H224.138V25.862H215.517V17.2413Z" fill="black"/>
<path d="M224.138 17.2413C226.424 17.2413 228.617 18.1496 230.234 19.7663C231.85 21.383 232.759 23.5757 232.759 25.862H224.138V17.2413Z" fill="black"/>
<path d="M17.2415 25.862H25.8621V34.4827H17.2415V25.862Z" fill="black"/>
<path d="M68.9656 25.862H77.5863V34.4827H68.9656V25.862Z" fill="black"/>
<path d="M86.207 25.862H94.8277V34.4827H86.207V25.862Z" fill="black"/>
<path d="M94.8277 25.862C97.114 25.862 99.3067 26.7703 100.923 28.387C102.54 30.0037 103.448 32.1964 103.448 34.4827H94.8277V25.862Z" fill="black"/>
<path d="M137.931 25.862H146.552V34.4827H137.931V25.862Z" fill="black"/>
<path d="M172.414 25.862H181.035V34.4827H172.414V25.862Z" fill="black"/>
<path d="M224.138 25.862H232.759V34.4827H224.138V25.862Z" fill="black"/>
<path d="M17.2415 34.4827H25.8621V43.1034H17.2415V34.4827Z" fill="black"/>
<path d="M34.4828 43.1034C34.4828 40.8171 35.3911 38.6243 37.0078 37.0077C38.6245 35.391 40.8172 34.4827 43.1035 34.4827V43.1034H34.4828Z" fill="black"/>
<path d="M43.1035 34.4827H51.7242V43.1034H43.1035V34.4827Z" fill="black"/>
<path d="M51.7242 34.4827C54.0106 34.4827 56.2033 35.391 57.82 37.0077C59.4367 38.6243 60.3449 40.8171 60.3449 43.1034H51.7242V34.4827Z" fill="black"/>
<path d="M68.9656 34.4827H77.5863V43.1034H68.9656V34.4827Z" fill="black"/>
<path d="M86.207 34.4827C86.207 36.7691 87.1152 38.9618 88.7319 40.5785C90.3486 42.1952 92.5413 43.1034 94.8277 43.1034V34.4827H86.207Z" fill="black"/>
<path d="M94.8277 34.4827H103.448V43.1034H94.8277V34.4827Z" fill="black"/>
<path d="M103.448 34.4827C105.735 34.4827 107.927 35.391 109.544 37.0077C111.161 38.6243 112.069 40.8171 112.069 43.1034H103.448V34.4827Z" fill="black"/>
<path d="M137.931 38.7931C137.931 39.9362 138.385 41.0326 139.194 41.8409C140.002 42.6493 141.098 43.1034 142.241 43.1034C143.385 43.1034 144.481 42.6493 145.289 41.8409C146.098 41.0326 146.552 39.9362 146.552 38.7931V34.4827H137.931V38.7931Z" fill="black"/>
<path d="M155.172 38.7931C155.172 37.6499 155.627 36.5535 156.435 35.7452C157.243 34.9368 158.34 34.4827 159.483 34.4827C160.626 34.4827 161.722 34.9368 162.531 35.7452C163.339 36.5535 163.793 37.6499 163.793 38.7931V43.1034H155.172V38.7931Z" fill="black"/>
<path d="M172.414 34.4827H181.035V43.1034H172.414V34.4827Z" fill="black"/>
<path d="M189.655 43.1034C189.655 40.8171 190.564 38.6243 192.18 37.0077C193.797 35.391 195.99 34.4827 198.276 34.4827V43.1034H189.655Z" fill="black"/>
<path d="M198.276 34.4827H206.897V43.1034H198.276V34.4827Z" fill="black"/>
<path d="M206.897 34.4827C209.183 34.4827 211.376 35.391 212.992 37.0077C214.609 38.6243 215.517 40.8171 215.517 43.1034H206.897V34.4827Z" fill="black"/>
<path d="M224.138 34.4827H232.759V43.1034H224.138V34.4827Z" fill="black"/>
<path d="M17.2415 43.1034H25.8621V51.7241H17.2415V43.1034Z" fill="black"/>
<path d="M34.4828 43.1034H43.1035V51.7241H34.4828V43.1034Z" fill="black"/>
<path d="M43.1035 43.1034H51.7242V51.7241H43.1035V43.1034Z" fill="black"/>
<path d="M51.7242 43.1034H60.3449V51.7241H51.7242V43.1034Z" fill="black"/>
<path d="M68.9656 43.1034H77.5863V51.7241H68.9656V43.1034Z" fill="black"/>
<path d="M94.8277 43.1034H103.448V51.7241H94.8277V43.1034Z" fill="black"/>
<path d="M103.448 51.7241C105.735 51.7241 107.927 50.8158 109.544 49.1991C111.161 47.5825 112.069 45.3898 112.069 43.1034H103.448V51.7241Z" fill="black"/>
<path d="M155.172 43.1034H163.793V51.7241H155.172V43.1034Z" fill="black"/>
<path d="M172.414 43.1034H181.035V51.7241H172.414V43.1034Z" fill="black"/>
<path d="M189.655 43.1034H198.276V51.7241H189.655V43.1034Z" fill="black"/>
<path d="M198.276 43.1034H206.897V51.7241H198.276V43.1034Z" fill="black"/>
<path d="M206.897 43.1034H215.517V51.7241H206.897V43.1034Z" fill="black"/>
<path d="M224.138 43.1034H232.759V51.7241H224.138V43.1034Z" fill="black"/>
<path d="M17.2415 51.7241H25.8621V60.3448H17.2415V51.7241Z" fill="black"/>
<path d="M34.4828 51.7241C34.4828 54.0104 35.3911 56.2031 37.0078 57.8198C38.6245 59.4365 40.8172 60.3448 43.1035 60.3448V51.7241H34.4828Z" fill="black"/>
<path d="M43.1035 51.7241H51.7242V60.3448H43.1035V51.7241Z" fill="black"/>
<path d="M51.7242 60.3448C54.0106 60.3448 56.2033 59.4365 57.82 57.8198C59.4367 56.2031 60.3449 54.0104 60.3449 51.7241H51.7242V60.3448Z" fill="black"/>
<path d="M68.9656 51.7241H77.5863V60.3448H68.9656V51.7241Z" fill="black"/>
<path d="M94.8277 56.0344C94.8277 57.1776 95.2818 58.274 96.0901 59.0823C96.8985 59.8907 97.9948 60.3448 99.138 60.3448C100.281 60.3448 101.378 59.8907 102.186 59.0823C102.994 58.274 103.448 57.1776 103.448 56.0344V51.7241H94.8277V56.0344Z" fill="black"/>
<path d="M116.379 51.7241C117.523 51.7241 118.619 52.1782 119.427 52.9866C120.236 53.7949 120.69 54.8913 120.69 56.0344C120.69 57.1776 120.236 58.274 119.427 59.0823C118.619 59.8907 117.523 60.3448 116.379 60.3448C115.236 60.3448 114.14 59.8907 113.332 59.0823C112.523 58.274 112.069 57.1776 112.069 56.0344C112.069 54.8913 112.523 53.7949 113.332 52.9866C114.14 52.1782 115.236 51.7241 116.379 51.7241Z" fill="black"/>
<path d="M155.172 56.0344C155.172 57.1776 155.627 58.274 156.435 59.0823C157.243 59.8907 158.34 60.3448 159.483 60.3448C160.626 60.3448 161.722 59.8907 162.531 59.0823C163.339 58.274 163.793 57.1776 163.793 56.0344V51.7241H155.172V56.0344Z" fill="black"/>
<path d="M172.414 51.7241H181.035V60.3448H172.414V51.7241Z" fill="black"/>
<path d="M189.655 51.7241C189.655 54.0104 190.564 56.2031 192.18 57.8198C193.797 59.4365 195.99 60.3448 198.276 60.3448V51.7241H189.655Z" fill="black"/>
<path d="M198.276 51.7241H206.897V60.3448H198.276V51.7241Z" fill="black"/>
<path d="M206.897 60.3448C209.183 60.3448 211.376 59.4365 212.992 57.8198C214.609 56.2031 215.517 54.0104 215.517 51.7241H206.897V60.3448Z" fill="black"/>
<path d="M224.138 51.7241H232.759V60.3448H224.138V51.7241Z" fill="black"/>
<path d="M17.2415 60.3448H25.8621V68.9655H17.2415V60.3448Z" fill="black"/>
<path d="M68.9656 60.3448H77.5863V68.9655H68.9656V60.3448Z" fill="black"/>
<path d="M86.207 64.6551C86.207 63.512 86.6611 62.4156 87.4694 61.6073C88.2778 60.7989 89.3741 60.3448 90.5173 60.3448C91.6605 60.3448 92.7568 60.7989 93.5652 61.6073C94.3735 62.4156 94.8277 63.512 94.8277 64.6551V68.9655H86.207V64.6551Z" fill="black"/>
<path d="M103.448 64.6551C103.448 63.512 103.902 62.4156 104.711 61.6073C105.519 60.7989 106.616 60.3448 107.759 60.3448C108.902 60.3448 109.998 60.7989 110.807 61.6073C111.615 62.4156 112.069 63.512 112.069 64.6551V68.9655H103.448V64.6551Z" fill="black"/>
<path d="M133.621 60.3448C134.764 60.3448 135.86 60.7989 136.669 61.6073C137.477 62.4156 137.931 63.512 137.931 64.6551C137.931 65.7983 137.477 66.8947 136.669 67.703C135.86 68.5113 134.764 68.9655 133.621 68.9655C132.478 68.9655 131.381 68.5113 130.573 67.703C129.765 66.8947 129.31 65.7983 129.31 64.6551C129.31 63.512 129.765 62.4156 130.573 61.6073C131.381 60.7989 132.478 60.3448 133.621 60.3448Z" fill="black"/>
<path d="M172.414 60.3448H181.035V68.9655H172.414V60.3448Z" fill="black"/>
<path d="M224.138 60.3448H232.759V68.9655H224.138V60.3448Z" fill="black"/>
<path d="M17.2415 68.9655C17.2415 71.2518 18.1497 73.4445 19.7664 75.0612C21.3831 76.6779 23.5758 77.5862 25.8621 77.5862V68.9655H17.2415Z" fill="black"/>
<path d="M25.8621 68.9655H34.4828V77.5862H25.8621V68.9655Z" fill="black"/>
<path d="M34.4828 68.9655H43.1035V77.5862H34.4828V68.9655Z" fill="black"/>
<path d="M43.1035 68.9655H51.7242V77.5862H43.1035V68.9655Z" fill="black"/>
<path d="M51.7242 68.9655H60.3449V77.5862H51.7242V68.9655Z" fill="black"/>
<path d="M60.3449 68.9655H68.9656V77.5862H60.3449V68.9655Z" fill="black"/>
<path d="M68.9656 77.5862C71.2519 77.5862 73.4446 76.6779 75.0613 75.0612C76.678 73.4445 77.5863 71.2518 77.5863 68.9655H68.9656V77.5862Z" fill="black"/>
<path d="M86.207 68.9655H94.8277V77.5862H86.207V68.9655Z" fill="black"/>
<path d="M103.448 73.2758C103.448 74.419 103.902 75.5153 104.711 76.3237C105.519 77.132 106.616 77.5862 107.759 77.5862C108.902 77.5862 109.998 77.132 110.807 76.3237C111.615 75.5153 112.069 74.419 112.069 73.2758V68.9655H103.448V73.2758Z" fill="black"/>
<path d="M120.69 73.2758C120.69 72.1326 121.144 71.0363 121.952 70.2279C122.761 69.4196 123.857 68.9655 125 68.9655C126.143 68.9655 127.24 69.4196 128.048 70.2279C128.856 71.0363 129.31 72.1326 129.31 73.2758V77.5862H120.69V73.2758Z" fill="black"/>
<path d="M142.241 68.9655C143.385 68.9655 144.481 69.4196 145.289 70.2279C146.098 71.0363 146.552 72.1326 146.552 73.2758C146.552 74.419 146.098 75.5153 145.289 76.3237C144.481 77.132 143.385 77.5862 142.241 77.5862C141.098 77.5862 140.002 77.132 139.194 76.3237C138.385 75.5153 137.931 74.419 137.931 73.2758C137.931 72.1326 138.385 71.0363 139.194 70.2279C140.002 69.4196 141.098 68.9655 142.241 68.9655Z" fill="black"/>
<path d="M155.172 73.2758C155.172 72.1326 155.627 71.0363 156.435 70.2279C157.243 69.4196 158.34 68.9655 159.483 68.9655C160.626 68.9655 161.722 69.4196 162.531 70.2279C163.339 71.0363 163.793 72.1326 163.793 73.2758V77.5862H155.172V73.2758Z" fill="black"/>
<path d="M172.414 68.9655C172.414 71.2518 173.322 73.4445 174.939 75.0612C176.556 76.6779 178.748 77.5862 181.035 77.5862V68.9655H172.414Z" fill="black"/>
<path d="M181.035 68.9655H189.655V77.5862H181.035V68.9655Z" fill="black"/>
<path d="M189.655 68.9655H198.276V77.5862H189.655V68.9655Z" fill="black"/>
<path d="M198.276 68.9655H206.897V77.5862H198.276V68.9655Z" fill="black"/>
<path d="M206.897 68.9655H215.517V77.5862H206.897V68.9655Z" fill="black"/>
<path d="M215.517 68.9655H224.138V77.5862H215.517V68.9655Z" fill="black"/>
<path d="M224.138 77.5862C226.424 77.5862 228.617 76.6779 230.234 75.0612C231.85 73.4445 232.759 71.2518 232.759 68.9655H224.138V77.5862Z" fill="black"/>
<path d="M86.207 77.5862H94.8277V86.2068H86.207V77.5862Z" fill="black"/>
<path d="M112.069 86.2068C112.069 83.9205 112.977 81.7278 114.594 80.1111C116.211 78.4944 118.403 77.5862 120.69 77.5862V86.2068H112.069Z" fill="black"/>
<path d="M120.69 77.5862H129.31V86.2068H120.69V77.5862Z" fill="black"/>
<path d="M133.621 77.5862C134.764 77.5862 135.86 78.0403 136.669 78.8486C137.477 79.657 137.931 80.7533 137.931 81.8965C137.931 83.0397 137.477 84.136 136.669 84.9444C135.86 85.7527 134.764 86.2068 133.621 86.2068H129.31V77.5862H133.621Z" fill="black"/>
<path d="M155.172 81.8965C155.172 83.0397 155.627 84.136 156.435 84.9444C157.243 85.7527 158.34 86.2068 159.483 86.2068C160.626 86.2068 161.722 85.7527 162.531 84.9444C163.339 84.136 163.793 83.0397 163.793 81.8965V77.5862H155.172V81.8965Z" fill="black"/>
<path d="M38.7932 86.2068C37.65 86.2068 36.5537 86.661 35.7453 87.4693C34.937 88.2777 34.4828 89.374 34.4828 90.5172C34.4828 91.6604 34.937 92.7567 35.7453 93.5651C36.5537 94.3734 37.65 94.8275 38.7932 94.8275H43.1035V86.2068H38.7932Z" fill="black"/>
<path d="M43.1035 86.2068H51.7242V94.8275H43.1035V86.2068Z" fill="black"/>
<path d="M51.7242 86.2068C54.0106 86.2068 56.2033 87.1151 57.82 88.7318C59.4367 90.3485 60.3449 92.5412 60.3449 94.8275H51.7242V86.2068Z" fill="black"/>
<path d="M73.2759 86.2068C74.4191 86.2068 75.5155 86.661 76.3238 87.4693C77.1322 88.2777 77.5863 89.374 77.5863 90.5172C77.5863 91.6604 77.1322 92.7567 76.3238 93.5651C75.5155 94.3734 74.4191 94.8275 73.2759 94.8275C72.1328 94.8275 71.0364 94.3734 70.2281 93.5651C69.4197 92.7567 68.9656 91.6604 68.9656 90.5172C68.9656 89.374 69.4197 88.2777 70.2281 87.4693C71.0364 86.661 72.1328 86.2068 73.2759 86.2068Z" fill="black"/>
<path d="M86.207 86.2068H94.8277V94.8275H86.207V86.2068Z" fill="black"/>
<path d="M99.138 86.2068C100.281 86.2068 101.378 86.661 102.186 87.4693C102.994 88.2777 103.448 89.374 103.448 90.5172C103.448 91.6604 102.994 92.7567 102.186 93.5651C101.378 94.3734 100.281 94.8275 99.138 94.8275H94.8277V86.2068H99.138Z" fill="black"/>
<path d="M112.069 86.2068C112.069 88.4932 112.977 90.6859 114.594 92.3026C116.211 93.9193 118.403 94.8275 120.69 94.8275V86.2068H112.069Z" fill="black"/>
<path d="M120.69 94.8275C122.976 94.8275 125.169 93.9193 126.785 92.3026C128.402 90.6859 129.31 88.4932 129.31 86.2068H120.69V94.8275Z" fill="black"/>
<path d="M150.862 86.2068C152.005 86.2068 153.102 86.661 153.91 87.4693C154.718 88.2777 155.172 89.374 155.172 90.5172C155.172 91.6604 154.718 92.7567 153.91 93.5651C153.102 94.3734 152.005 94.8275 150.862 94.8275C149.719 94.8275 148.623 94.3734 147.814 93.5651C147.006 92.7567 146.552 91.6604 146.552 90.5172C146.552 89.374 147.006 88.2777 147.814 87.4693C148.623 86.661 149.719 86.2068 150.862 86.2068Z" fill="black"/>
<path d="M168.104 86.2068C166.96 86.2068 165.864 86.661 165.056 87.4693C164.247 88.2777 163.793 89.374 163.793 90.5172C163.793 91.6604 164.247 92.7567 165.056 93.5651C165.864 94.3734 166.96 94.8275 168.104 94.8275H172.414V86.2068H168.104Z" fill="black"/>
<path d="M172.414 86.2068H181.035V94.8275H172.414V86.2068Z" fill="black"/>
<path d="M185.345 86.2068C186.488 86.2068 187.584 86.661 188.393 87.4693C189.201 88.2777 189.655 89.374 189.655 90.5172C189.655 91.6604 189.201 92.7567 188.393 93.5651C187.584 94.3734 186.488 94.8275 185.345 94.8275H181.035V86.2068H185.345Z" fill="black"/>
<path d="M206.897 94.8275C206.897 92.5412 207.805 90.3485 209.422 88.7318C211.038 87.1151 213.231 86.2068 215.517 86.2068V94.8275H206.897Z" fill="black"/>
<path d="M215.517 86.2068H224.138V94.8275H215.517V86.2068Z" fill="black"/>
<path d="M228.448 86.2068C229.592 86.2068 230.688 86.661 231.496 87.4693C232.305 88.2777 232.759 89.374 232.759 90.5172C232.759 91.6604 232.305 92.7567 231.496 93.5651C230.688 94.3734 229.592 94.8275 228.448 94.8275H224.138V86.2068H228.448Z" fill="black"/>
<path d="M51.7242 94.8275H60.3449V103.448H51.7242V94.8275Z" fill="black"/>
<path d="M77.5863 103.448C77.5863 101.162 78.4945 98.9692 80.1112 97.3525C81.7279 95.7358 83.9206 94.8275 86.207 94.8275V103.448H77.5863Z" fill="black"/>
<path d="M86.207 103.448C88.4933 103.448 90.686 102.54 92.3027 100.923C93.9194 99.3066 94.8277 97.1139 94.8277 94.8275H86.207V103.448Z" fill="black"/>
<path d="M172.414 94.8275H181.035V103.448H172.414V94.8275Z" fill="black"/>
<path d="M189.655 99.1379C189.655 97.9947 190.109 96.8984 190.918 96.09C191.726 95.2817 192.822 94.8275 193.966 94.8275C195.109 94.8275 196.205 95.2817 197.013 96.09C197.822 96.8984 198.276 97.9947 198.276 99.1379V103.448H189.655V99.1379Z" fill="black"/>
<path d="M206.897 99.1379C206.897 100.281 207.351 101.377 208.159 102.186C208.967 102.994 210.064 103.448 211.207 103.448C212.35 103.448 213.446 102.994 214.255 102.186C215.063 101.377 215.517 100.281 215.517 99.1379V94.8275H206.897V99.1379Z" fill="black"/>
<path d="M17.2415 107.759C17.2415 106.615 17.6956 105.519 18.5039 104.711C19.3123 103.902 20.4086 103.448 21.5518 103.448C22.695 103.448 23.7913 103.902 24.5997 104.711C25.408 105.519 25.8621 106.615 25.8621 107.759V112.069H17.2415V107.759Z" fill="black"/>
<path d="M38.7932 103.448C37.65 103.448 36.5537 103.902 35.7453 104.711C34.937 105.519 34.4828 106.615 34.4828 107.759C34.4828 108.902 34.937 109.998 35.7453 110.806C36.5537 111.615 37.65 112.069 38.7932 112.069H43.1035V103.448H38.7932Z" fill="black"/>
<path d="M43.1035 103.448H51.7242V112.069H43.1035V103.448Z" fill="black"/>
<path d="M51.7242 103.448H60.3449V112.069H51.7242V103.448Z" fill="black"/>
<path d="M73.2759 103.448C72.1328 103.448 71.0364 103.902 70.2281 104.711C69.4197 105.519 68.9656 106.615 68.9656 107.759C68.9656 108.902 69.4197 109.998 70.2281 110.806C71.0364 111.615 72.1328 112.069 73.2759 112.069H77.5863V103.448H73.2759Z" fill="black"/>
<path d="M77.5863 112.069C79.8726 112.069 82.0653 111.161 83.682 109.544C85.2987 107.927 86.207 105.735 86.207 103.448H77.5863V112.069Z" fill="black"/>
<path d="M172.414 103.448H181.035V112.069H172.414V103.448Z" fill="black"/>
<path d="M181.035 103.448H189.655V112.069H181.035V103.448Z" fill="black"/>
<path d="M189.655 103.448H198.276V112.069H189.655V103.448Z" fill="black"/>
<path d="M198.276 103.448C200.562 103.448 202.755 104.356 204.372 105.973C205.988 107.59 206.897 109.783 206.897 112.069H198.276V103.448Z" fill="black"/>
<path d="M215.517 112.069C215.517 109.783 216.426 107.59 218.042 105.973C219.659 104.356 221.852 103.448 224.138 103.448V112.069H215.517Z" fill="black"/>
<path d="M224.138 103.448C226.424 103.448 228.617 104.356 230.234 105.973C231.85 107.59 232.759 109.783 232.759 112.069H224.138V103.448Z" fill="black"/>
<path d="M17.2415 112.069H25.8621V120.69H17.2415V112.069Z" fill="black"/>
<path d="M51.7242 116.379C51.7242 117.522 52.1783 118.619 52.9867 119.427C53.795 120.235 54.8914 120.69 56.0346 120.69C57.1777 120.69 58.2741 120.235 59.0824 119.427C59.8908 118.619 60.3449 117.522 60.3449 116.379V112.069H51.7242V116.379Z" fill="black"/>
<path d="M86.207 116.379C86.207 115.236 86.6611 114.14 87.4694 113.331C88.2778 112.523 89.3741 112.069 90.5173 112.069C91.6605 112.069 92.7568 112.523 93.5652 113.331C94.3735 114.14 94.8277 115.236 94.8277 116.379V120.69H86.207V116.379Z" fill="black"/>
<path d="M163.793 120.69C163.793 118.403 164.701 116.211 166.318 114.594C167.935 112.977 170.128 112.069 172.414 112.069V120.69H163.793Z" fill="black"/>
<path d="M172.414 112.069H181.035V120.69H172.414V112.069Z" fill="black"/>
<path d="M181.035 112.069H189.655V120.69H181.035V112.069Z" fill="black"/>
<path d="M189.655 112.069H198.276V120.69H189.655V112.069Z" fill="black"/>
<path d="M198.276 120.69C200.562 120.69 202.755 119.781 204.372 118.165C205.988 116.548 206.897 114.355 206.897 112.069H198.276V120.69Z" fill="black"/>
<path d="M215.517 112.069H224.138V120.69H215.517V112.069Z" fill="black"/>
<path d="M224.138 112.069H232.759V120.69H224.138V112.069Z" fill="black"/>
<path d="M17.2415 120.69H25.8621V129.31H17.2415V120.69Z" fill="black"/>
<path d="M25.8621 120.69H34.4828V129.31H25.8621V120.69Z" fill="black"/>
<path d="M38.7932 120.69C39.9364 120.69 41.0327 121.144 41.8411 121.952C42.6494 122.76 43.1035 123.857 43.1035 125C43.1035 126.143 42.6494 127.239 41.8411 128.048C41.0327 128.856 39.9364 129.31 38.7932 129.31H34.4828V120.69H38.7932Z" fill="black"/>
<path d="M60.3449 129.31C60.3449 127.024 61.2532 124.831 62.8698 123.215C64.4865 121.598 66.6792 120.69 68.9656 120.69V129.31H60.3449Z" fill="black"/>
<path d="M73.2759 120.69C74.4191 120.69 75.5155 121.144 76.3238 121.952C77.1322 122.76 77.5863 123.857 77.5863 125C77.5863 126.143 77.1322 127.239 76.3238 128.048C75.5155 128.856 74.4191 129.31 73.2759 129.31H68.9656V120.69H73.2759Z" fill="black"/>
<path d="M86.207 120.69H94.8277V129.31H86.207V120.69Z" fill="black"/>
<path d="M159.483 120.69C158.34 120.69 157.243 121.144 156.435 121.952C155.627 122.76 155.172 123.857 155.172 125C155.172 126.143 155.627 127.239 156.435 128.048C157.243 128.856 158.34 129.31 159.483 129.31H163.793V120.69H159.483Z" fill="black"/>
<path d="M163.793 120.69H172.414V129.31H163.793V120.69Z" fill="black"/>
<path d="M172.414 120.69H181.035V129.31H172.414V120.69Z" fill="black"/>
<path d="M181.035 120.69H189.655V129.31H181.035V120.69Z" fill="black"/>
<path d="M206.897 129.31C206.897 127.024 207.805 124.831 209.422 123.215C211.038 121.598 213.231 120.69 215.517 120.69V129.31H206.897Z" fill="black"/>
<path d="M215.517 120.69H224.138V129.31H215.517V120.69Z" fill="black"/>
<path d="M224.138 129.31C226.424 129.31 228.617 128.402 230.234 126.785C231.85 125.169 232.759 122.976 232.759 120.69H224.138V129.31Z" fill="black"/>
<path d="M17.2415 129.31H25.8621V137.931H17.2415V129.31Z" fill="black"/>
<path d="M43.1035 133.621C43.1035 132.477 43.5576 131.381 44.366 130.573C45.1743 129.764 46.2707 129.31 47.4139 129.31C48.557 129.31 49.6534 129.764 50.4617 130.573C51.2701 131.381 51.7242 132.477 51.7242 133.621V137.931H43.1035V133.621Z" fill="black"/>
<path d="M60.3449 133.621C60.3449 134.764 60.799 135.86 61.6074 136.669C62.4157 137.477 63.5121 137.931 64.6552 137.931C65.7984 137.931 66.8948 137.477 67.7031 136.669C68.5115 135.86 68.9656 134.764 68.9656 133.621V129.31H60.3449V133.621Z" fill="black"/>
<path d="M81.8966 129.31C80.7535 129.31 79.6571 129.764 78.8488 130.573C78.0404 131.381 77.5863 132.477 77.5863 133.621C77.5863 134.764 78.0404 135.86 78.8488 136.669C79.6571 137.477 80.7535 137.931 81.8966 137.931H86.207V129.31H81.8966Z" fill="black"/>
<path d="M86.207 137.931C88.4933 137.931 90.686 137.023 92.3027 135.406C93.9194 133.789 94.8277 131.597 94.8277 129.31H86.207V137.931Z" fill="black"/>
<path d="M163.793 133.621C163.793 134.764 164.247 135.86 165.056 136.669C165.864 137.477 166.96 137.931 168.104 137.931C169.247 137.931 170.343 137.477 171.151 136.669C171.96 135.86 172.414 134.764 172.414 133.621V129.31H163.793V133.621Z" fill="black"/>
<path d="M181.035 129.31H189.655V137.931H181.035V129.31Z" fill="black"/>
<path d="M198.276 137.931C198.276 135.645 199.184 133.452 200.801 131.835C202.418 130.219 204.61 129.31 206.897 129.31V137.931H198.276Z" fill="black"/>
<path d="M206.897 129.31H215.517V137.931H206.897V129.31Z" fill="black"/>
<path d="M17.2415 137.931H25.8621V146.552H17.2415V137.931Z" fill="black"/>
<path d="M43.1035 137.931C43.1035 140.217 44.0118 142.41 45.6285 144.027C47.2452 145.643 49.4379 146.552 51.7242 146.552V137.931H43.1035Z" fill="black"/>
<path d="M56.0346 137.931C57.1777 137.931 58.2741 138.385 59.0824 139.193C59.8908 140.002 60.3449 141.098 60.3449 142.241C60.3449 143.385 59.8908 144.481 59.0824 145.289C58.2741 146.098 57.1777 146.552 56.0346 146.552H51.7242V137.931H56.0346Z" fill="black"/>
<path d="M73.2759 137.931C74.4191 137.931 75.5155 138.385 76.3238 139.193C77.1322 140.002 77.5863 141.098 77.5863 142.241C77.5863 143.385 77.1322 144.481 76.3238 145.289C75.5155 146.098 74.4191 146.552 73.2759 146.552C72.1328 146.552 71.0364 146.098 70.2281 145.289C69.4197 144.481 68.9656 143.385 68.9656 142.241C68.9656 141.098 69.4197 140.002 70.2281 139.193C71.0364 138.385 72.1328 137.931 73.2759 137.931Z" fill="black"/>
<path d="M159.483 137.931C160.626 137.931 161.722 138.385 162.531 139.193C163.339 140.002 163.793 141.098 163.793 142.241C163.793 143.385 163.339 144.481 162.531 145.289C161.722 146.098 160.626 146.552 159.483 146.552C158.34 146.552 157.243 146.098 156.435 145.289C155.627 144.481 155.172 143.385 155.172 142.241C155.172 141.098 155.627 140.002 156.435 139.193C157.243 138.385 158.34 137.931 159.483 137.931Z" fill="black"/>
<path d="M181.035 137.931H189.655V146.552H181.035V137.931Z" fill="black"/>
<path d="M189.655 137.931H198.276V146.552H189.655V137.931Z" fill="black"/>
<path d="M198.276 137.931H206.897V146.552H198.276V137.931Z" fill="black"/>
<path d="M206.897 137.931H215.517V146.552H206.897V137.931Z" fill="black"/>
<path d="M215.517 137.931H224.138V146.552H215.517V137.931Z" fill="black"/>
<path d="M224.138 137.931C226.424 137.931 228.617 138.839 230.234 140.456C231.85 142.073 232.759 144.265 232.759 146.552H224.138V137.931Z" fill="black"/>
<path d="M17.2415 146.552H25.8621V155.172H17.2415V146.552Z" fill="black"/>
<path d="M60.3449 150.862C60.3449 149.719 60.799 148.622 61.6074 147.814C62.4157 147.006 63.5121 146.552 64.6552 146.552C65.7984 146.552 66.8948 147.006 67.7031 147.814C68.5115 148.622 68.9656 149.719 68.9656 150.862V155.172H60.3449V150.862Z" fill="black"/>
<path d="M90.5173 146.552C91.6605 146.552 92.7568 147.006 93.5652 147.814C94.3735 148.622 94.8277 149.719 94.8277 150.862C94.8277 152.005 94.3735 153.102 93.5652 153.91C92.7568 154.718 91.6605 155.172 90.5173 155.172C89.3741 155.172 88.2778 154.718 87.4694 153.91C86.6611 153.102 86.207 152.005 86.207 150.862C86.207 149.719 86.6611 148.622 87.4694 147.814C88.2778 147.006 89.3741 146.552 90.5173 146.552Z" fill="black"/>
<path d="M181.035 146.552H189.655V155.172H181.035V146.552Z" fill="black"/>
<path d="M198.276 146.552H206.897V155.172H198.276V146.552Z" fill="black"/>
<path d="M224.138 146.552H232.759V155.172H224.138V146.552Z" fill="black"/>
<path d="M17.2415 159.483C17.2415 160.626 17.6956 161.722 18.5039 162.531C19.3123 163.339 20.4086 163.793 21.5518 163.793C22.695 163.793 23.7913 163.339 24.5997 162.531C25.408 161.722 25.8621 160.626 25.8621 159.483V155.172H17.2415V159.483Z" fill="black"/>
<path d="M56.0346 155.172C54.8914 155.172 53.795 155.626 52.9867 156.435C52.1783 157.243 51.7242 158.34 51.7242 159.483C51.7242 160.626 52.1783 161.722 52.9867 162.531C53.795 163.339 54.8914 163.793 56.0346 163.793H60.3449V155.172H56.0346Z" fill="black"/>
<path d="M60.3449 155.172H68.9656V163.793H60.3449V155.172Z" fill="black"/>
<path d="M68.9656 155.172H77.5863V163.793H68.9656V155.172Z" fill="black"/>
<path d="M81.8966 155.172C83.0398 155.172 84.1362 155.626 84.9445 156.435C85.7529 157.243 86.207 158.34 86.207 159.483C86.207 160.626 85.7529 161.722 84.9445 162.531C84.1362 163.339 83.0398 163.793 81.8966 163.793H77.5863V155.172H81.8966Z" fill="black"/>
<path d="M112.069 163.793C112.069 161.507 112.977 159.314 114.594 157.697C116.211 156.081 118.403 155.172 120.69 155.172V163.793H112.069Z" fill="black"/>
<path d="M125 155.172C126.143 155.172 127.24 155.626 128.048 156.435C128.856 157.243 129.31 158.34 129.31 159.483C129.31 160.626 128.856 161.722 128.048 162.531C127.24 163.339 126.143 163.793 125 163.793H120.69V155.172H125Z" fill="black"/>
<path d="M146.552 163.793C146.552 161.507 147.46 159.314 149.077 157.697C150.693 156.081 152.886 155.172 155.172 155.172V163.793H146.552Z" fill="black"/>
<path d="M155.172 155.172H163.793V163.793H155.172V155.172Z" fill="black"/>
<path d="M163.793 155.172H172.414V163.793H163.793V155.172Z" fill="black"/>
<path d="M172.414 155.172H181.035V163.793H172.414V155.172Z" fill="black"/>
<path d="M181.035 155.172H189.655V163.793H181.035V155.172Z" fill="black"/>
<path d="M189.655 155.172H198.276V163.793H189.655V155.172Z" fill="black"/>
<path d="M198.276 155.172H206.897V163.793H198.276V155.172Z" fill="black"/>
<path d="M206.897 155.172H215.517V163.793H206.897V155.172Z" fill="black"/>
<path d="M215.517 155.172H224.138V163.793H215.517V155.172Z" fill="black"/>
<path d="M224.138 163.793C226.424 163.793 228.617 162.885 230.234 161.268C231.85 159.651 232.759 157.459 232.759 155.172H224.138V163.793Z" fill="black"/>
<path d="M90.5173 163.793C89.3741 163.793 88.2778 164.247 87.4694 165.056C86.6611 165.864 86.207 166.96 86.207 168.103C86.207 169.247 86.6611 170.343 87.4694 171.151C88.2778 171.96 89.3741 172.414 90.5173 172.414H94.8277V163.793H90.5173Z" fill="black"/>
<path d="M94.8277 163.793H103.448V172.414H94.8277V163.793Z" fill="black"/>
<path d="M103.448 163.793H112.069V172.414H103.448V163.793Z" fill="black"/>
<path d="M112.069 172.414C114.355 172.414 116.548 171.505 118.165 169.889C119.781 168.272 120.69 166.079 120.69 163.793H112.069V172.414Z" fill="black"/>
<path d="M142.241 163.793C141.098 163.793 140.002 164.247 139.194 165.056C138.385 165.864 137.931 166.96 137.931 168.103C137.931 169.247 138.385 170.343 139.194 171.151C140.002 171.96 141.098 172.414 142.241 172.414H146.552V163.793H142.241Z" fill="black"/>
<path d="M146.552 163.793H155.172V172.414H146.552V163.793Z" fill="black"/>
<path d="M155.172 163.793H163.793V172.414H155.172V163.793Z" fill="black"/>
<path d="M189.655 163.793H198.276V172.414H189.655V163.793Z" fill="black"/>
<path d="M198.276 163.793H206.897V172.414H198.276V163.793Z" fill="black"/>
<path d="M206.897 163.793H215.517V172.414H206.897V163.793Z" fill="black"/>
<path d="M215.517 163.793H224.138V172.414H215.517V163.793Z" fill="black"/>
<path d="M17.2415 181.034C17.2415 178.748 18.1497 176.555 19.7664 174.939C21.3831 173.322 23.5758 172.414 25.8621 172.414V181.034H17.2415Z" fill="black"/>
<path d="M25.8621 172.414H34.4828V181.034H25.8621V172.414Z" fill="black"/>
<path d="M34.4828 172.414H43.1035V181.034H34.4828V172.414Z" fill="black"/>
<path d="M43.1035 172.414H51.7242V181.034H43.1035V172.414Z" fill="black"/>
<path d="M51.7242 172.414H60.3449V181.034H51.7242V172.414Z" fill="black"/>
<path d="M60.3449 172.414H68.9656V181.034H60.3449V172.414Z" fill="black"/>
<path d="M68.9656 172.414C71.2519 172.414 73.4446 173.322 75.0613 174.939C76.678 176.555 77.5863 178.748 77.5863 181.034H68.9656V172.414Z" fill="black"/>
<path d="M94.8277 176.724C94.8277 177.867 95.2818 178.964 96.0901 179.772C96.8985 180.58 97.9948 181.034 99.138 181.034C100.281 181.034 101.378 180.58 102.186 179.772C102.994 178.964 103.448 177.867 103.448 176.724V172.414H94.8277V176.724Z" fill="black"/>
<path d="M146.552 172.414C146.552 174.7 147.46 176.893 149.077 178.509C150.693 180.126 152.886 181.034 155.172 181.034V172.414H146.552Z" fill="black"/>
<path d="M155.172 172.414H163.793V181.034H155.172V172.414Z" fill="black"/>
<path d="M176.724 172.414C177.867 172.414 178.964 172.868 179.772 173.676C180.58 174.485 181.035 175.581 181.035 176.724C181.035 177.867 180.58 178.964 179.772 179.772C178.964 180.58 177.867 181.034 176.724 181.034C175.581 181.034 174.485 180.58 173.676 179.772C172.868 178.964 172.414 177.867 172.414 176.724C172.414 175.581 172.868 174.485 173.676 173.676C174.485 172.868 175.581 172.414 176.724 172.414Z" fill="black"/>
<path d="M189.655 172.414H198.276V181.034H189.655V172.414Z" fill="black"/>
<path d="M206.897 172.414C206.897 174.7 207.805 176.893 209.422 178.509C211.038 180.126 213.231 181.034 215.517 181.034V172.414H206.897Z" fill="black"/>
<path d="M215.517 172.414H224.138V181.034H215.517V172.414Z" fill="black"/>
<path d="M224.138 172.414C226.424 172.414 228.617 173.322 230.234 174.939C231.85 176.555 232.759 178.748 232.759 181.034H224.138V172.414Z" fill="black"/>
<path d="M17.2415 181.034H25.8621V189.655H17.2415V181.034Z" fill="black"/>
<path d="M68.9656 181.034H77.5863V189.655H68.9656V181.034Z" fill="black"/>
<path d="M103.448 189.655C103.448 187.369 104.357 185.176 105.973 183.559C107.59 181.943 109.783 181.034 112.069 181.034V189.655H103.448Z" fill="black"/>
<path d="M112.069 181.034C114.355 181.034 116.548 181.943 118.165 183.559C119.781 185.176 120.69 187.369 120.69 189.655H112.069V181.034Z" fill="black"/>
<path d="M129.31 189.655C129.31 187.369 130.219 185.176 131.835 183.559C133.452 181.943 135.645 181.034 137.931 181.034V189.655H129.31Z" fill="black"/>
<path d="M142.241 181.034C143.385 181.034 144.481 181.489 145.289 182.297C146.098 183.105 146.552 184.202 146.552 185.345C146.552 186.488 146.098 187.584 145.289 188.393C144.481 189.201 143.385 189.655 142.241 189.655H137.931V181.034H142.241Z" fill="black"/>
<path d="M155.172 181.034H163.793V189.655H155.172V181.034Z" fill="black"/>
<path d="M189.655 181.034H198.276V189.655H189.655V181.034Z" fill="black"/>
<path d="M202.586 181.034C203.729 181.034 204.826 181.489 205.634 182.297C206.443 183.105 206.897 184.202 206.897 185.345C206.897 186.488 206.443 187.584 205.634 188.393C204.826 189.201 203.729 189.655 202.586 189.655H198.276V181.034H202.586Z" fill="black"/>
<path d="M215.517 181.034H224.138V189.655H215.517V181.034Z" fill="black"/>
<path d="M224.138 181.034H232.759V189.655H224.138V181.034Z" fill="black"/>
<path d="M17.2415 189.655H25.8621V198.276H17.2415V189.655Z" fill="black"/>
<path d="M34.4828 198.276C34.4828 195.989 35.3911 193.797 37.0078 192.18C38.6245 190.563 40.8172 189.655 43.1035 189.655V198.276H34.4828Z" fill="black"/>
<path d="M43.1035 189.655H51.7242V198.276H43.1035V189.655Z" fill="black"/>
<path d="M51.7242 189.655C54.0106 189.655 56.2033 190.563 57.82 192.18C59.4367 193.797 60.3449 195.989 60.3449 198.276H51.7242V189.655Z" fill="black"/>
<path d="M68.9656 189.655H77.5863V198.276H68.9656V189.655Z" fill="black"/>
<path d="M86.207 198.276C86.207 195.989 87.1152 193.797 88.7319 192.18C90.3486 190.563 92.5413 189.655 94.8277 189.655V198.276H86.207Z" fill="black"/>
<path d="M94.8277 189.655H103.448V198.276H94.8277V189.655Z" fill="black"/>
<path d="M103.448 189.655H112.069V198.276H103.448V189.655Z" fill="black"/>
<path d="M112.069 198.276C114.355 198.276 116.548 197.368 118.165 195.751C119.781 194.134 120.69 191.941 120.69 189.655H112.069V198.276Z" fill="black"/>
<path d="M129.31 189.655H137.931V198.276H129.31V189.655Z" fill="black"/>
<path d="M155.172 189.655H163.793V198.276H155.172V189.655Z" fill="black"/>
<path d="M163.793 189.655H172.414V198.276H163.793V189.655Z" fill="black"/>
<path d="M172.414 189.655H181.035V198.276H172.414V189.655Z" fill="black"/>
<path d="M181.035 189.655H189.655V198.276H181.035V189.655Z" fill="black"/>
<path d="M189.655 198.276C191.942 198.276 194.134 197.368 195.751 195.751C197.368 194.134 198.276 191.941 198.276 189.655H189.655V198.276Z" fill="black"/>
<path d="M215.517 189.655C215.517 191.941 216.426 194.134 218.042 195.751C219.659 197.368 221.852 198.276 224.138 198.276V189.655H215.517Z" fill="black"/>
<path d="M224.138 189.655H232.759V198.276H224.138V189.655Z" fill="black"/>
<path d="M17.2415 198.276H25.8621V206.897H17.2415V198.276Z" fill="black"/>
<path d="M34.4828 198.276H43.1035V206.897H34.4828V198.276Z" fill="black"/>
<path d="M43.1035 198.276H51.7242V206.897H43.1035V198.276Z" fill="black"/>
<path d="M51.7242 198.276H60.3449V206.897H51.7242V198.276Z" fill="black"/>
<path d="M68.9656 198.276H77.5863V206.897H68.9656V198.276Z" fill="black"/>
<path d="M86.207 198.276H94.8277V206.897H86.207V198.276Z" fill="black"/>
<path d="M94.8277 206.897C97.114 206.897 99.3067 205.988 100.923 204.372C102.54 202.755 103.448 200.562 103.448 198.276H94.8277V206.897Z" fill="black"/>
<path d="M129.31 198.276C129.31 200.562 130.219 202.755 131.835 204.372C133.452 205.988 135.645 206.897 137.931 206.897V198.276H129.31Z" fill="black"/>
<path d="M137.931 198.276H146.552V206.897H137.931V198.276Z" fill="black"/>
<path d="M146.552 198.276H155.172V206.897H146.552V198.276Z" fill="black"/>
<path d="M155.172 198.276H163.793V206.897H155.172V198.276Z" fill="black"/>
<path d="M181.035 202.586C181.035 203.729 181.489 204.826 182.297 205.634C183.105 206.442 184.202 206.897 185.345 206.897C186.488 206.897 187.584 206.442 188.393 205.634C189.201 204.826 189.655 203.729 189.655 202.586V198.276H181.035V202.586Z" fill="black"/>
<path d="M198.276 202.586C198.276 201.443 198.73 200.347 199.538 199.538C200.347 198.73 201.443 198.276 202.586 198.276C203.729 198.276 204.826 198.73 205.634 199.538C206.443 200.347 206.897 201.443 206.897 202.586V206.897H198.276V202.586Z" fill="black"/>
<path d="M224.138 198.276H232.759V206.897H224.138V198.276Z" fill="black"/>
<path d="M17.2415 206.897H25.8621V215.517H17.2415V206.897Z" fill="black"/>
<path d="M34.4828 206.897C34.4828 209.183 35.3911 211.376 37.0078 212.992C38.6245 214.609 40.8172 215.517 43.1035 215.517V206.897H34.4828Z" fill="black"/>
<path d="M43.1035 206.897H51.7242V215.517H43.1035V206.897Z" fill="black"/>
<path d="M51.7242 215.517C54.0106 215.517 56.2033 214.609 57.82 212.992C59.4367 211.376 60.3449 209.183 60.3449 206.897H51.7242V215.517Z" fill="black"/>
<path d="M68.9656 206.897H77.5863V215.517H68.9656V206.897Z" fill="black"/>
<path d="M86.207 211.207C86.207 212.35 86.6611 213.446 87.4694 214.255C88.2778 215.063 89.3741 215.517 90.5173 215.517C91.6605 215.517 92.7568 215.063 93.5652 214.255C94.3735 213.446 94.8277 212.35 94.8277 211.207V206.897H86.207V211.207Z" fill="black"/>
<path d="M120.69 211.207C120.69 210.064 121.144 208.967 121.952 208.159C122.761 207.351 123.857 206.897 125 206.897C126.143 206.897 127.24 207.351 128.048 208.159C128.856 208.967 129.31 210.064 129.31 211.207V215.517H120.69V211.207Z" fill="black"/>
<path d="M137.931 206.897H146.552V215.517H137.931V206.897Z" fill="black"/>
<path d="M155.172 211.207C155.172 212.35 155.627 213.446 156.435 214.255C157.243 215.063 158.34 215.517 159.483 215.517C160.626 215.517 161.722 215.063 162.531 214.255C163.339 213.446 163.793 212.35 163.793 211.207V206.897H155.172V211.207Z" fill="black"/>
<path d="M198.276 206.897H206.897V215.517H198.276V206.897Z" fill="black"/>
<path d="M224.138 206.897H232.759V215.517H224.138V206.897Z" fill="black"/>
<path d="M17.2415 215.517H25.8621V224.138H17.2415V215.517Z" fill="black"/>
<path d="M68.9656 215.517H77.5863V224.138H68.9656V215.517Z" fill="black"/>
<path d="M99.138 215.517C100.281 215.517 101.378 215.971 102.186 216.78C102.994 217.588 103.448 218.684 103.448 219.828C103.448 220.971 102.994 222.067 102.186 222.875C101.378 223.684 100.281 224.138 99.138 224.138C97.9948 224.138 96.8985 223.684 96.0901 222.875C95.2818 222.067 94.8277 220.971 94.8277 219.828C94.8277 218.684 95.2818 217.588 96.0901 216.78C96.8985 215.971 97.9948 215.517 99.138 215.517Z" fill="black"/>
<path d="M112.069 224.138C112.069 221.852 112.977 219.659 114.594 218.042C116.211 216.425 118.403 215.517 120.69 215.517V224.138H112.069Z" fill="black"/>
<path d="M120.69 215.517H129.31V224.138H120.69V215.517Z" fill="black"/>
<path d="M137.931 215.517H146.552V224.138H137.931V215.517Z" fill="black"/>
<path d="M146.552 215.517C148.838 215.517 151.031 216.425 152.648 218.042C154.264 219.659 155.172 221.852 155.172 224.138H146.552V215.517Z" fill="black"/>
<path d="M172.414 224.138C172.414 221.852 173.322 219.659 174.939 218.042C176.556 216.425 178.748 215.517 181.035 215.517V224.138H172.414Z" fill="black"/>
<path d="M181.035 215.517H189.655V224.138H181.035V215.517Z" fill="black"/>
<path d="M189.655 215.517H198.276V224.138H189.655V215.517Z" fill="black"/>
<path d="M198.276 215.517H206.897V224.138H198.276V215.517Z" fill="black"/>
<path d="M224.138 215.517H232.759V224.138H224.138V215.517Z" fill="black"/>
<path d="M17.2415 224.138C17.2415 226.424 18.1497 228.617 19.7664 230.234C21.3831 231.85 23.5758 232.759 25.8621 232.759V224.138H17.2415Z" fill="black"/>
<path d="M25.8621 224.138H34.4828V232.759H25.8621V224.138Z" fill="black"/>
<path d="M34.4828 224.138H43.1035V232.759H34.4828V224.138Z" fill="black"/>
<path d="M43.1035 224.138H51.7242V232.759H43.1035V224.138Z" fill="black"/>
<path d="M51.7242 224.138H60.3449V232.759H51.7242V224.138Z" fill="black"/>
<path d="M60.3449 224.138H68.9656V232.759H60.3449V224.138Z" fill="black"/>
<path d="M68.9656 232.759C71.2519 232.759 73.4446 231.85 75.0613 230.234C76.678 228.617 77.5863 226.424 77.5863 224.138H68.9656V232.759Z" fill="black"/>
<path d="M112.069 224.138C112.069 226.424 112.977 228.617 114.594 230.234C116.211 231.85 118.403 232.759 120.69 232.759V224.138H112.069Z" fill="black"/>
<path d="M120.69 224.138H129.31V232.759H120.69V224.138Z" fill="black"/>
<path d="M129.31 224.138H137.931V232.759H129.31V224.138Z" fill="black"/>
<path d="M137.931 224.138H146.552V232.759H137.931V224.138Z" fill="black"/>
<path d="M146.552 232.759C148.838 232.759 151.031 231.85 152.648 230.234C154.264 228.617 155.172 226.424 155.172 224.138H146.552V232.759Z" fill="black"/>
<path d="M172.414 224.138C172.414 226.424 173.322 228.617 174.939 230.234C176.556 231.85 178.748 232.759 181.035 232.759V224.138H172.414Z" fill="black"/>
<path d="M181.035 224.138H189.655V232.759H181.035V224.138Z" fill="black"/>
<path d="M189.655 224.138H198.276V232.759H189.655V224.138Z" fill="black"/>
<path d="M198.276 224.138H206.897V232.759H198.276V224.138Z" fill="black"/>
<path d="M206.897 224.138H215.517V232.759H206.897V224.138Z" fill="black"/>
<path d="M215.517 224.138H224.138V232.759H215.517V224.138Z" fill="black"/>
<path d="M224.138 232.759C226.424 232.759 228.617 231.85 230.234 230.234C231.85 228.617 232.759 226.424 232.759 224.138H224.138V232.759Z" fill="black"/>
<path d="M17.2415 25.862C17.2415 23.5757 18.1497 21.383 19.7664 19.7663C21.3831 18.1496 23.5758 17.2413 25.8621 17.2413M17.2415 25.862H25.8621M17.2415 25.862V34.4827M25.8621 17.2413V25.862M25.8621 17.2413H34.4828M25.8621 25.862H34.4828M25.8621 25.862V34.4827M34.4828 17.2413V25.862M34.4828 17.2413H43.1035M34.4828 25.862H43.1035M43.1035 17.2413V25.862M43.1035 17.2413H51.7242M43.1035 25.862H51.7242M51.7242 17.2413V25.862M51.7242 17.2413H60.3449M51.7242 25.862H60.3449M60.3449 17.2413V25.862M60.3449 17.2413H68.9656M60.3449 25.862H68.9656M68.9656 17.2413V25.862M68.9656 17.2413C71.2519 17.2413 73.4446 18.1496 75.0613 19.7663C76.678 21.383 77.5863 23.5757 77.5863 25.862M68.9656 25.862H77.5863M68.9656 25.862V34.4827M77.5863 25.862V34.4827M94.8277 25.862V21.5517C94.8277 20.4085 94.3735 19.3122 93.5652 18.5038C92.7568 17.6955 91.6605 17.2413 90.5173 17.2413C89.3741 17.2413 88.2778 17.6955 87.4694 18.5038C86.6611 19.3122 86.207 20.4085 86.207 21.5517V25.862M94.8277 25.862H86.207M94.8277 25.862V34.4827M94.8277 25.862C97.114 25.862 99.3067 26.7703 100.923 28.387C102.54 30.0037 103.448 32.1964 103.448 34.4827M86.207 25.862V34.4827M120.69 25.862H116.379C115.236 25.862 114.14 25.4079 113.332 24.5996C112.523 23.7912 112.069 22.6949 112.069 21.5517C112.069 20.4085 112.523 19.3122 113.332 18.5038C114.14 17.6955 115.236 17.2413 116.379 17.2413H120.69M120.69 25.862V17.2413M120.69 25.862H125C126.143 25.862 127.24 25.4079 128.048 24.5996C128.856 23.7912 129.31 22.6949 129.31 21.5517C129.31 20.4085 128.856 19.3122 128.048 18.5038C127.24 17.6955 126.143 17.2413 125 17.2413H120.69M137.931 25.862C137.931 23.5757 138.839 21.383 140.456 19.7663C142.073 18.1496 144.265 17.2413 146.552 17.2413M137.931 25.862H146.552M137.931 25.862V34.4827M146.552 17.2413V25.862M146.552 17.2413H150.862C152.005 17.2413 153.102 17.6955 153.91 18.5038C154.718 19.3122 155.172 20.4085 155.172 21.5517C155.172 22.6949 154.718 23.7912 153.91 24.5996C153.102 25.4079 152.005 25.862 150.862 25.862H146.552M146.552 25.862V34.4827M172.414 25.862C172.414 23.5757 173.322 21.383 174.939 19.7663C176.556 18.1496 178.748 17.2413 181.035 17.2413M172.414 25.862H181.035M172.414 25.862V34.4827M181.035 17.2413V25.862M181.035 17.2413H189.655M181.035 25.862H189.655M181.035 25.862V34.4827M189.655 17.2413V25.862M189.655 17.2413H198.276M189.655 25.862H198.276M198.276 17.2413V25.862M198.276 17.2413H206.897M198.276 25.862H206.897M206.897 17.2413V25.862M206.897 17.2413H215.517M206.897 25.862H215.517M215.517 17.2413V25.862M215.517 17.2413H224.138M215.517 25.862H224.138M224.138 17.2413V25.862M224.138 17.2413C226.424 17.2413 228.617 18.1496 230.234 19.7663C231.85 21.383 232.759 23.5757 232.759 25.862M224.138 25.862H232.759M224.138 25.862V34.4827M232.759 25.862V34.4827M25.8621 34.4827H17.2415M25.8621 34.4827V43.1034M17.2415 34.4827V43.1034M77.5863 34.4827H68.9656M77.5863 34.4827V43.1034M68.9656 34.4827V43.1034M94.8277 34.4827H86.207M94.8277 34.4827H103.448M94.8277 34.4827V43.1034M86.207 34.4827C86.207 36.7691 87.1152 38.9618 88.7319 40.5785C90.3486 42.1952 92.5413 43.1034 94.8277 43.1034M103.448 34.4827V43.1034M103.448 34.4827C105.735 34.4827 107.927 35.391 109.544 37.0077C111.161 38.6243 112.069 40.8171 112.069 43.1034M146.552 34.4827H137.931M146.552 34.4827V38.7931C146.552 39.9362 146.098 41.0326 145.289 41.8409C144.481 42.6493 143.385 43.1034 142.241 43.1034C141.098 43.1034 140.002 42.6493 139.194 41.8409C138.385 41.0326 137.931 39.9362 137.931 38.7931V34.4827M181.035 34.4827H172.414M181.035 34.4827V43.1034M172.414 34.4827V43.1034M232.759 34.4827H224.138M232.759 34.4827V43.1034M224.138 34.4827V43.1034M25.8621 43.1034H17.2415M25.8621 43.1034V51.7241M17.2415 43.1034V51.7241M34.4828 43.1034C34.4828 40.8171 35.3911 38.6243 37.0078 37.0077C38.6245 35.391 40.8172 34.4827 43.1035 34.4827M34.4828 43.1034H43.1035M34.4828 43.1034V51.7241M43.1035 34.4827V43.1034M43.1035 34.4827H51.7242M43.1035 43.1034H51.7242M43.1035 43.1034V51.7241M51.7242 34.4827V43.1034M51.7242 34.4827C54.0106 34.4827 56.2033 35.391 57.82 37.0077C59.4367 38.6243 60.3449 40.8171 60.3449 43.1034M51.7242 43.1034H60.3449M51.7242 43.1034V51.7241M60.3449 43.1034V51.7241M77.5863 43.1034H68.9656M77.5863 43.1034V51.7241M68.9656 43.1034V51.7241M94.8277 43.1034H103.448M94.8277 43.1034V51.7241M103.448 43.1034H112.069M103.448 43.1034V51.7241M112.069 43.1034C112.069 45.3898 111.161 47.5825 109.544 49.1991C107.927 50.8158 105.735 51.7241 103.448 51.7241M163.793 43.1034V38.7931C163.793 37.6499 163.339 36.5535 162.531 35.7452C161.722 34.9368 160.626 34.4827 159.483 34.4827C158.34 34.4827 157.243 34.9368 156.435 35.7452C155.627 36.5535 155.172 37.6499 155.172 38.7931V43.1034M163.793 43.1034H155.172M163.793 43.1034V51.7241M155.172 43.1034V51.7241M181.035 43.1034H172.414M181.035 43.1034V51.7241M172.414 43.1034V51.7241M189.655 43.1034C189.655 40.8171 190.564 38.6243 192.18 37.0077C193.797 35.391 195.99 34.4827 198.276 34.4827M189.655 43.1034H198.276M189.655 43.1034V51.7241M198.276 34.4827V43.1034M198.276 34.4827H206.897M198.276 43.1034H206.897M198.276 43.1034V51.7241M206.897 34.4827V43.1034M206.897 34.4827C209.183 34.4827 211.376 35.391 212.992 37.0077C214.609 38.6243 215.517 40.8171 215.517 43.1034M206.897 43.1034H215.517M206.897 43.1034V51.7241M215.517 43.1034V51.7241M232.759 43.1034H224.138M232.759 43.1034V51.7241M224.138 43.1034V51.7241M25.8621 51.7241H17.2415M25.8621 51.7241V60.3448M17.2415 51.7241V60.3448M43.1035 51.7241H34.4828M43.1035 51.7241H51.7242M43.1035 51.7241V60.3448M34.4828 51.7241C34.4828 54.0104 35.3911 56.2031 37.0078 57.8198C38.6245 59.4365 40.8172 60.3448 43.1035 60.3448M51.7242 51.7241H60.3449M51.7242 51.7241V60.3448M60.3449 51.7241C60.3449 54.0104 59.4367 56.2031 57.82 57.8198C56.2033 59.4365 54.0106 60.3448 51.7242 60.3448M77.5863 51.7241H68.9656M77.5863 51.7241V60.3448M68.9656 51.7241V60.3448M103.448 51.7241H94.8277M103.448 51.7241V56.0344C103.448 57.1776 102.994 58.274 102.186 59.0823C101.378 59.8907 100.281 60.3448 99.138 60.3448C97.9948 60.3448 96.8985 59.8907 96.0901 59.0823C95.2818 58.274 94.8277 57.1776 94.8277 56.0344V51.7241M163.793 51.7241H155.172M163.793 51.7241V56.0344C163.793 57.1776 163.339 58.274 162.531 59.0823C161.722 59.8907 160.626 60.3448 159.483 60.3448C158.34 60.3448 157.243 59.8907 156.435 59.0823C155.627 58.274 155.172 57.1776 155.172 56.0344V51.7241M181.035 51.7241H172.414M181.035 51.7241V60.3448M172.414 51.7241V60.3448M198.276 51.7241H189.655M198.276 51.7241H206.897M198.276 51.7241V60.3448M189.655 51.7241C189.655 54.0104 190.564 56.2031 192.18 57.8198C193.797 59.4365 195.99 60.3448 198.276 60.3448M206.897 51.7241H215.517M206.897 51.7241V60.3448M215.517 51.7241C215.517 54.0104 214.609 56.2031 212.992 57.8198C211.376 59.4365 209.183 60.3448 206.897 60.3448M232.759 51.7241H224.138M232.759 51.7241V60.3448M224.138 51.7241V60.3448M25.8621 60.3448H17.2415M25.8621 60.3448V68.9655M17.2415 60.3448V68.9655M43.1035 60.3448H51.7242M77.5863 60.3448H68.9656M77.5863 60.3448V68.9655M68.9656 60.3448V68.9655M181.035 60.3448H172.414M181.035 60.3448V68.9655M172.414 60.3448V68.9655M198.276 60.3448H206.897M232.759 60.3448H224.138M232.759 60.3448V68.9655M224.138 60.3448V68.9655M25.8621 68.9655H17.2415M25.8621 68.9655V77.5862M25.8621 68.9655H34.4828M17.2415 68.9655C17.2415 71.2518 18.1497 73.4445 19.7664 75.0612C21.3831 76.6779 23.5758 77.5862 25.8621 77.5862M77.5863 68.9655H68.9656M77.5863 68.9655C77.5863 71.2518 76.678 73.4445 75.0613 75.0612C73.4446 76.6779 71.2519 77.5862 68.9656 77.5862M68.9656 68.9655H60.3449M68.9656 68.9655V77.5862M94.8277 68.9655V64.6551C94.8277 63.512 94.3735 62.4156 93.5652 61.6073C92.7568 60.7989 91.6605 60.3448 90.5173 60.3448C89.3741 60.3448 88.2778 60.7989 87.4694 61.6073C86.6611 62.4156 86.207 63.512 86.207 64.6551V68.9655M94.8277 68.9655H86.207M94.8277 68.9655V77.5862M86.207 68.9655V77.5862M112.069 68.9655V64.6551C112.069 63.512 111.615 62.4156 110.807 61.6073C109.998 60.7989 108.902 60.3448 107.759 60.3448C106.616 60.3448 105.519 60.7989 104.711 61.6073C103.902 62.4156 103.448 63.512 103.448 64.6551V68.9655M112.069 68.9655H103.448M112.069 68.9655V73.2758C112.069 74.419 111.615 75.5153 110.807 76.3237C109.998 77.132 108.902 77.5862 107.759 77.5862C106.616 77.5862 105.519 77.132 104.711 76.3237C103.902 75.5153 103.448 74.419 103.448 73.2758V68.9655M181.035 68.9655H172.414M181.035 68.9655V77.5862M181.035 68.9655H189.655M172.414 68.9655C172.414 71.2518 173.322 73.4445 174.939 75.0612C176.556 76.6779 178.748 77.5862 181.035 77.5862M232.759 68.9655H224.138M232.759 68.9655C232.759 71.2518 231.85 73.4445 230.234 75.0612C228.617 76.6779 226.424 77.5862 224.138 77.5862M224.138 68.9655H215.517M224.138 68.9655V77.5862M25.8621 77.5862H34.4828M34.4828 68.9655V77.5862M34.4828 68.9655H43.1035M34.4828 77.5862H43.1035M43.1035 68.9655V77.5862M43.1035 68.9655H51.7242M43.1035 77.5862H51.7242M51.7242 68.9655V77.5862M51.7242 68.9655H60.3449M51.7242 77.5862H60.3449M60.3449 68.9655V77.5862M60.3449 77.5862H68.9656M94.8277 77.5862H86.207M94.8277 77.5862V86.2068M86.207 77.5862V86.2068M129.31 77.5862V73.2758C129.31 72.1326 128.856 71.0363 128.048 70.2279C127.24 69.4196 126.143 68.9655 125 68.9655C123.857 68.9655 122.761 69.4196 121.952 70.2279C121.144 71.0363 120.69 72.1326 120.69 73.2758V77.5862M129.31 77.5862H120.69M129.31 77.5862V86.2068M129.31 77.5862H133.621C134.764 77.5862 135.86 78.0403 136.669 78.8486C137.477 79.657 137.931 80.7533 137.931 81.8965C137.931 83.0397 137.477 84.136 136.669 84.9444C135.86 85.7527 134.764 86.2068 133.621 86.2068H129.31M120.69 77.5862C118.403 77.5862 116.211 78.4944 114.594 80.1111C112.977 81.7278 112.069 83.9205 112.069 86.2068M120.69 77.5862V86.2068M163.793 77.5862V73.2758C163.793 72.1326 163.339 71.0363 162.531 70.2279C161.722 69.4196 160.626 68.9655 159.483 68.9655C158.34 68.9655 157.243 69.4196 156.435 70.2279C155.627 71.0363 155.172 72.1326 155.172 73.2758V77.5862M163.793 77.5862H155.172M163.793 77.5862V81.8965C163.793 83.0397 163.339 84.136 162.531 84.9444C161.722 85.7527 160.626 86.2068 159.483 86.2068C158.34 86.2068 157.243 85.7527 156.435 84.9444C155.627 84.136 155.172 83.0397 155.172 81.8965V77.5862M181.035 77.5862H189.655M189.655 68.9655V77.5862M189.655 68.9655H198.276M189.655 77.5862H198.276M198.276 68.9655V77.5862M198.276 68.9655H206.897M198.276 77.5862H206.897M206.897 68.9655V77.5862M206.897 68.9655H215.517M206.897 77.5862H215.517M215.517 68.9655V77.5862M215.517 77.5862H224.138M94.8277 86.2068H86.207M94.8277 86.2068V94.8275M94.8277 86.2068H99.138C100.281 86.2068 101.378 86.661 102.186 87.4693C102.994 88.2777 103.448 89.374 103.448 90.5172C103.448 91.6604 102.994 92.7567 102.186 93.5651C101.378 94.3734 100.281 94.8275 99.138 94.8275H94.8277M86.207 86.2068V94.8275M112.069 86.2068H120.69M112.069 86.2068C112.069 88.4932 112.977 90.6859 114.594 92.3026C116.211 93.9193 118.403 94.8275 120.69 94.8275M120.69 86.2068H129.31M120.69 86.2068V94.8275M129.31 86.2068C129.31 88.4932 128.402 90.6859 126.785 92.3026C125.169 93.9193 122.976 94.8275 120.69 94.8275M43.1035 94.8275H38.7932C37.65 94.8275 36.5537 94.3734 35.7453 93.5651C34.937 92.7567 34.4828 91.6604 34.4828 90.5172C34.4828 89.374 34.937 88.2777 35.7453 87.4693C36.5537 86.661 37.65 86.2068 38.7932 86.2068H43.1035M43.1035 94.8275V86.2068M43.1035 94.8275H51.7242M43.1035 86.2068H51.7242M51.7242 86.2068V94.8275M51.7242 86.2068C54.0106 86.2068 56.2033 87.1151 57.82 88.7318C59.4367 90.3485 60.3449 92.5412 60.3449 94.8275M51.7242 94.8275H60.3449M51.7242 94.8275V103.448M60.3449 94.8275V103.448M94.8277 94.8275H86.207M94.8277 94.8275C94.8277 97.1139 93.9194 99.3066 92.3027 100.923C90.686 102.54 88.4933 103.448 86.207 103.448M86.207 94.8275C83.9206 94.8275 81.7279 95.7358 80.1112 97.3525C78.4945 98.9692 77.5863 101.162 77.5863 103.448M86.207 94.8275V103.448M172.414 94.8275H168.104C166.96 94.8275 165.864 94.3734 165.056 93.5651C164.247 92.7567 163.793 91.6604 163.793 90.5172C163.793 89.374 164.247 88.2777 165.056 87.4693C165.864 86.661 166.96 86.2068 168.104 86.2068H172.414M172.414 94.8275V86.2068M172.414 94.8275H181.035M172.414 94.8275V103.448M172.414 86.2068H181.035M181.035 86.2068V94.8275M181.035 86.2068H185.345C186.488 86.2068 187.584 86.661 188.393 87.4693C189.201 88.2777 189.655 89.374 189.655 90.5172C189.655 91.6604 189.201 92.7567 188.393 93.5651C187.584 94.3734 186.488 94.8275 185.345 94.8275H181.035M181.035 94.8275V103.448M206.897 94.8275C206.897 92.5412 207.805 90.3485 209.422 88.7318C211.038 87.1151 213.231 86.2068 215.517 86.2068M206.897 94.8275H215.517M206.897 94.8275V99.1379C206.897 100.281 207.351 101.377 208.159 102.186C208.967 102.994 210.064 103.448 211.207 103.448C212.35 103.448 213.446 102.994 214.255 102.186C215.063 101.377 215.517 100.281 215.517 99.1379V94.8275M215.517 86.2068V94.8275M215.517 86.2068H224.138M215.517 94.8275H224.138M224.138 86.2068V94.8275M224.138 86.2068H228.448C229.592 86.2068 230.688 86.661 231.496 87.4693C232.305 88.2777 232.759 89.374 232.759 90.5172C232.759 91.6604 232.305 92.7567 231.496 93.5651C230.688 94.3734 229.592 94.8275 228.448 94.8275H224.138M60.3449 103.448H51.7242M60.3449 103.448V112.069M51.7242 103.448H43.1035M51.7242 103.448V112.069M77.5863 103.448H86.207M77.5863 103.448V112.069M77.5863 103.448H73.2759C72.1328 103.448 71.0364 103.902 70.2281 104.711C69.4197 105.519 68.9656 106.615 68.9656 107.759C68.9656 108.902 69.4197 109.998 70.2281 110.806C71.0364 111.615 72.1328 112.069 73.2759 112.069H77.5863M86.207 103.448C86.207 105.735 85.2987 107.927 83.682 109.544C82.0653 111.161 79.8726 112.069 77.5863 112.069M181.035 103.448H172.414M181.035 103.448V112.069M181.035 103.448H189.655M172.414 103.448V112.069M198.276 103.448V99.1379C198.276 97.9947 197.822 96.8984 197.013 96.09C196.205 95.2817 195.109 94.8275 193.966 94.8275C192.822 94.8275 191.726 95.2817 190.918 96.09C190.109 96.8984 189.655 97.9947 189.655 99.1379V103.448M198.276 103.448H189.655M198.276 103.448V112.069M198.276 103.448C200.562 103.448 202.755 104.356 204.372 105.973C205.988 107.59 206.897 109.783 206.897 112.069M189.655 103.448V112.069M25.8621 112.069V107.759C25.8621 106.615 25.408 105.519 24.5997 104.711C23.7913 103.902 22.695 103.448 21.5518 103.448C20.4086 103.448 19.3123 103.902 18.5039 104.711C17.6956 105.519 17.2415 106.615 17.2415 107.759V112.069M25.8621 112.069H17.2415M25.8621 112.069V120.69M17.2415 112.069V120.69M43.1035 112.069H38.7932C37.65 112.069 36.5537 111.615 35.7453 110.806C34.937 109.998 34.4828 108.902 34.4828 107.759C34.4828 106.615 34.937 105.519 35.7453 104.711C36.5537 103.902 37.65 103.448 38.7932 103.448H43.1035M43.1035 112.069V103.448M43.1035 112.069H51.7242M51.7242 112.069H60.3449M51.7242 112.069V116.379C51.7242 117.522 52.1783 118.619 52.9867 119.427C53.795 120.235 54.8914 120.69 56.0346 120.69C57.1777 120.69 58.2741 120.235 59.0824 119.427C59.8908 118.619 60.3449 117.522 60.3449 116.379V112.069M181.035 112.069H172.414M181.035 112.069H189.655M181.035 112.069V120.69M172.414 112.069C170.128 112.069 167.935 112.977 166.318 114.594C164.701 116.211 163.793 118.403 163.793 120.69M172.414 112.069V120.69M189.655 112.069H198.276M189.655 112.069V120.69M198.276 112.069H206.897M198.276 112.069V120.69M206.897 112.069C206.897 114.355 205.988 116.548 204.372 118.165C202.755 119.781 200.562 120.69 198.276 120.69M215.517 112.069C215.517 109.783 216.426 107.59 218.042 105.973C219.659 104.356 221.852 103.448 224.138 103.448M215.517 112.069H224.138M215.517 112.069V120.69M224.138 103.448V112.069M224.138 103.448C226.424 103.448 228.617 104.356 230.234 105.973C231.85 107.59 232.759 109.783 232.759 112.069M224.138 112.069H232.759M224.138 112.069V120.69M232.759 112.069V120.69M25.8621 120.69H17.2415M25.8621 120.69V129.31M25.8621 120.69H34.4828M17.2415 120.69V129.31M94.8277 120.69V116.379C94.8277 115.236 94.3735 114.14 93.5652 113.331C92.7568 112.523 91.6605 112.069 90.5173 112.069C89.3741 112.069 88.2778 112.523 87.4694 113.331C86.6611 114.14 86.207 115.236 86.207 116.379V120.69M94.8277 120.69H86.207M94.8277 120.69V129.31M86.207 120.69V129.31M163.793 120.69H172.414M163.793 120.69V129.31M163.793 120.69H159.483C158.34 120.69 157.243 121.144 156.435 121.952C155.627 122.76 155.172 123.857 155.172 125C155.172 126.143 155.627 127.239 156.435 128.048C157.243 128.856 158.34 129.31 159.483 129.31H163.793M172.414 120.69H181.035M172.414 120.69V129.31M181.035 120.69H189.655M181.035 120.69V129.31M189.655 120.69H198.276M189.655 120.69V129.31M224.138 120.69H215.517M224.138 120.69H232.759M224.138 120.69V129.31M215.517 120.69C213.231 120.69 211.038 121.598 209.422 123.215C207.805 124.831 206.897 127.024 206.897 129.31M215.517 120.69V129.31M232.759 120.69C232.759 122.976 231.85 125.169 230.234 126.785C228.617 128.402 226.424 129.31 224.138 129.31M25.8621 129.31H17.2415M25.8621 129.31H34.4828M25.8621 129.31V137.931M17.2415 129.31V137.931M34.4828 120.69V129.31M34.4828 120.69H38.7932C39.9364 120.69 41.0327 121.144 41.8411 121.952C42.6494 122.76 43.1035 123.857 43.1035 125C43.1035 126.143 42.6494 127.239 41.8411 128.048C41.0327 128.856 39.9364 129.31 38.7932 129.31H34.4828M60.3449 129.31C60.3449 127.024 61.2532 124.831 62.8698 123.215C64.4865 121.598 66.6792 120.69 68.9656 120.69M60.3449 129.31H68.9656M60.3449 129.31V133.621C60.3449 134.764 60.799 135.86 61.6074 136.669C62.4157 137.477 63.5121 137.931 64.6552 137.931C65.7984 137.931 66.8948 137.477 67.7031 136.669C68.5115 135.86 68.9656 134.764 68.9656 133.621V129.31M68.9656 120.69V129.31M68.9656 120.69H73.2759C74.4191 120.69 75.5155 121.144 76.3238 121.952C77.1322 122.76 77.5863 123.857 77.5863 125C77.5863 126.143 77.1322 127.239 76.3238 128.048C75.5155 128.856 74.4191 129.31 73.2759 129.31H68.9656M94.8277 129.31H86.207M94.8277 129.31C94.8277 131.597 93.9194 133.789 92.3027 135.406C90.686 137.023 88.4933 137.931 86.207 137.931M86.207 129.31V137.931M86.207 129.31H81.8966C80.7535 129.31 79.6571 129.764 78.8488 130.573C78.0404 131.381 77.5863 132.477 77.5863 133.621C77.5863 134.764 78.0404 135.86 78.8488 136.669C79.6571 137.477 80.7535 137.931 81.8966 137.931H86.207M163.793 129.31H172.414M163.793 129.31V133.621C163.793 134.764 164.247 135.86 165.056 136.669C165.864 137.477 166.96 137.931 168.104 137.931C169.247 137.931 170.343 137.477 171.151 136.669C171.96 135.86 172.414 134.764 172.414 133.621V129.31M172.414 129.31H181.035M181.035 129.31H189.655M181.035 129.31V137.931M189.655 129.31V137.931M206.897 129.31H215.517M206.897 129.31C204.61 129.31 202.418 130.219 200.801 131.835C199.184 133.452 198.276 135.645 198.276 137.931M206.897 129.31V137.931M215.517 129.31H224.138M215.517 129.31V137.931M25.8621 137.931H17.2415M25.8621 137.931V146.552M17.2415 137.931V146.552M51.7242 137.931V133.621C51.7242 132.477 51.2701 131.381 50.4617 130.573C49.6534 129.764 48.557 129.31 47.4139 129.31C46.2707 129.31 45.1743 129.764 44.366 130.573C43.5576 131.381 43.1035 132.477 43.1035 133.621V137.931M51.7242 137.931H43.1035M51.7242 137.931V146.552M51.7242 137.931H56.0346C57.1777 137.931 58.2741 138.385 59.0824 139.193C59.8908 140.002 60.3449 141.098 60.3449 142.241C60.3449 143.385 59.8908 144.481 59.0824 145.289C58.2741 146.098 57.1777 146.552 56.0346 146.552H51.7242M43.1035 137.931C43.1035 140.217 44.0118 142.41 45.6285 144.027C47.2452 145.643 49.4379 146.552 51.7242 146.552M189.655 137.931H181.035M189.655 137.931V146.552M189.655 137.931H198.276M181.035 137.931V146.552M198.276 137.931H206.897M198.276 137.931V146.552M206.897 137.931H215.517M206.897 137.931V146.552M215.517 137.931V146.552M215.517 137.931H224.138M25.8621 146.552H17.2415M25.8621 146.552V155.172M17.2415 146.552V155.172M189.655 146.552H181.035M189.655 146.552H198.276M189.655 146.552V155.172M181.035 146.552V155.172M198.276 146.552H206.897M198.276 146.552V155.172M206.897 146.552H215.517M206.897 146.552V155.172M215.517 146.552H224.138M224.138 137.931V146.552M224.138 137.931C226.424 137.931 228.617 138.839 230.234 140.456C231.85 142.073 232.759 144.265 232.759 146.552M224.138 146.552H232.759M224.138 146.552V155.172M232.759 146.552V155.172M25.8621 155.172H17.2415M25.8621 155.172V159.483C25.8621 160.626 25.408 161.722 24.5997 162.531C23.7913 163.339 22.695 163.793 21.5518 163.793C20.4086 163.793 19.3123 163.339 18.5039 162.531C17.6956 161.722 17.2415 160.626 17.2415 159.483V155.172M68.9656 155.172V150.862C68.9656 149.719 68.5115 148.622 67.7031 147.814C66.8948 147.006 65.7984 146.552 64.6552 146.552C63.5121 146.552 62.4157 147.006 61.6074 147.814C60.799 148.622 60.3449 149.719 60.3449 150.862V155.172M68.9656 155.172H60.3449M68.9656 155.172V163.793M68.9656 155.172H77.5863M60.3449 155.172V163.793M60.3449 155.172H56.0346C54.8914 155.172 53.795 155.626 52.9867 156.435C52.1783 157.243 51.7242 158.34 51.7242 159.483C51.7242 160.626 52.1783 161.722 52.9867 162.531C53.795 163.339 54.8914 163.793 56.0346 163.793H60.3449M189.655 155.172H181.035M189.655 155.172V163.793M189.655 155.172H198.276M181.035 155.172H172.414M181.035 155.172V163.793M206.897 155.172H198.276M206.897 155.172V163.793M206.897 155.172H215.517M198.276 155.172V163.793M232.759 155.172H224.138M232.759 155.172C232.759 157.459 231.85 159.651 230.234 161.268C228.617 162.885 226.424 163.793 224.138 163.793M224.138 155.172H215.517M224.138 155.172V163.793M60.3449 163.793H68.9656M68.9656 163.793H77.5863M77.5863 155.172V163.793M77.5863 155.172H81.8966C83.0398 155.172 84.1362 155.626 84.9445 156.435C85.7529 157.243 86.207 158.34 86.207 159.483C86.207 160.626 85.7529 161.722 84.9445 162.531C84.1362 163.339 83.0398 163.793 81.8966 163.793H77.5863M112.069 163.793C112.069 161.507 112.977 159.314 114.594 157.697C116.211 156.081 118.403 155.172 120.69 155.172M112.069 163.793H120.69M112.069 163.793H103.448M112.069 163.793V172.414M120.69 155.172V163.793M120.69 155.172H125C126.143 155.172 127.24 155.626 128.048 156.435C128.856 157.243 129.31 158.34 129.31 159.483C129.31 160.626 128.856 161.722 128.048 162.531C127.24 163.339 126.143 163.793 125 163.793H120.69M120.69 163.793C120.69 166.079 119.781 168.272 118.165 169.889C116.548 171.505 114.355 172.414 112.069 172.414M146.552 163.793C146.552 161.507 147.46 159.314 149.077 157.697C150.693 156.081 152.886 155.172 155.172 155.172M146.552 163.793H155.172M146.552 163.793V172.414M146.552 163.793H142.241C141.098 163.793 140.002 164.247 139.194 165.056C138.385 165.864 137.931 166.96 137.931 168.103C137.931 169.247 138.385 170.343 139.194 171.151C140.002 171.96 141.098 172.414 142.241 172.414H146.552M155.172 155.172V163.793M155.172 155.172H163.793M155.172 163.793H163.793M155.172 163.793V172.414M163.793 155.172V163.793M163.793 155.172H172.414M163.793 163.793H172.414M163.793 163.793V172.414M172.414 155.172V163.793M172.414 163.793H181.035M181.035 163.793H189.655M189.655 163.793H198.276M189.655 163.793V172.414M198.276 163.793H206.897M198.276 163.793V172.414M206.897 163.793H215.517M206.897 163.793V172.414M215.517 155.172V163.793M215.517 163.793H224.138M215.517 163.793V172.414M224.138 163.793V172.414M94.8277 172.414H90.5173C89.3741 172.414 88.2778 171.96 87.4694 171.151C86.6611 170.343 86.207 169.247 86.207 168.103C86.207 166.96 86.6611 165.864 87.4694 165.056C88.2778 164.247 89.3741 163.793 90.5173 163.793H94.8277M94.8277 172.414V163.793M94.8277 172.414H103.448M94.8277 172.414V176.724C94.8277 177.867 95.2818 178.964 96.0901 179.772C96.8985 180.58 97.9948 181.034 99.138 181.034C100.281 181.034 101.378 180.58 102.186 179.772C102.994 178.964 103.448 177.867 103.448 176.724V172.414M94.8277 163.793H103.448M103.448 163.793V172.414M103.448 172.414H112.069M146.552 172.414H155.172M146.552 172.414C146.552 174.7 147.46 176.893 149.077 178.509C150.693 180.126 152.886 181.034 155.172 181.034M155.172 172.414H163.793M155.172 172.414V181.034M163.793 172.414V181.034M198.276 172.414H189.655M198.276 172.414H206.897M198.276 172.414V181.034M189.655 172.414V181.034M206.897 172.414H215.517M206.897 172.414C206.897 174.7 207.805 176.893 209.422 178.509C211.038 180.126 213.231 181.034 215.517 181.034M215.517 172.414H224.138M215.517 172.414V181.034M224.138 172.414V181.034M224.138 172.414C226.424 172.414 228.617 173.322 230.234 174.939C231.85 176.555 232.759 178.748 232.759 181.034M17.2415 181.034C17.2415 178.748 18.1497 176.555 19.7664 174.939C21.3831 173.322 23.5758 172.414 25.8621 172.414M17.2415 181.034H25.8621M17.2415 181.034V189.655M25.8621 172.414V181.034M25.8621 172.414H34.4828M25.8621 181.034H34.4828M25.8621 181.034V189.655M34.4828 172.414V181.034M34.4828 172.414H43.1035M34.4828 181.034H43.1035M43.1035 172.414V181.034M43.1035 172.414H51.7242M43.1035 181.034H51.7242M51.7242 172.414V181.034M51.7242 172.414H60.3449M51.7242 181.034H60.3449M60.3449 172.414V181.034M60.3449 172.414H68.9656M60.3449 181.034H68.9656M68.9656 172.414V181.034M68.9656 172.414C71.2519 172.414 73.4446 173.322 75.0613 174.939C76.678 176.555 77.5863 178.748 77.5863 181.034M68.9656 181.034H77.5863M68.9656 181.034V189.655M77.5863 181.034V189.655M155.172 181.034H163.793M155.172 181.034V189.655M163.793 181.034V189.655M198.276 181.034H189.655M198.276 181.034V189.655M198.276 181.034H202.586C203.729 181.034 204.826 181.489 205.634 182.297C206.443 183.105 206.897 184.202 206.897 185.345C206.897 186.488 206.443 187.584 205.634 188.393C204.826 189.201 203.729 189.655 202.586 189.655H198.276M189.655 181.034V189.655M215.517 181.034H224.138M215.517 181.034V189.655M224.138 181.034H232.759M224.138 181.034V189.655M232.759 181.034V189.655M25.8621 189.655H17.2415M25.8621 189.655V198.276M17.2415 189.655V198.276M77.5863 189.655H68.9656M77.5863 189.655V198.276M68.9656 189.655V198.276M103.448 189.655C103.448 187.369 104.357 185.176 105.973 183.559C107.59 181.943 109.783 181.034 112.069 181.034M103.448 189.655H112.069M103.448 189.655H94.8277M103.448 189.655V198.276M112.069 181.034V189.655M112.069 181.034C114.355 181.034 116.548 181.943 118.165 183.559C119.781 185.176 120.69 187.369 120.69 189.655M112.069 189.655H120.69M112.069 189.655V198.276M120.69 189.655C120.69 191.941 119.781 194.134 118.165 195.751C116.548 197.368 114.355 198.276 112.069 198.276M129.31 189.655C129.31 187.369 130.219 185.176 131.835 183.559C133.452 181.943 135.645 181.034 137.931 181.034M129.31 189.655H137.931M129.31 189.655V198.276M137.931 181.034V189.655M137.931 181.034H142.241C143.385 181.034 144.481 181.489 145.289 182.297C146.098 183.105 146.552 184.202 146.552 185.345C146.552 186.488 146.098 187.584 145.289 188.393C144.481 189.201 143.385 189.655 142.241 189.655H137.931M137.931 189.655V198.276M163.793 189.655H155.172M163.793 189.655V198.276M163.793 189.655H172.414M155.172 189.655V198.276M198.276 189.655H189.655M198.276 189.655C198.276 191.941 197.368 194.134 195.751 195.751C194.134 197.368 191.942 198.276 189.655 198.276M189.655 189.655H181.035M189.655 189.655V198.276M224.138 189.655H215.517M224.138 189.655H232.759M224.138 189.655V198.276M215.517 189.655C215.517 191.941 216.426 194.134 218.042 195.751C219.659 197.368 221.852 198.276 224.138 198.276M232.759 189.655V198.276M25.8621 198.276H17.2415M25.8621 198.276V206.897M17.2415 198.276V206.897M34.4828 198.276C34.4828 195.989 35.3911 193.797 37.0078 192.18C38.6245 190.563 40.8172 189.655 43.1035 189.655M34.4828 198.276H43.1035M34.4828 198.276V206.897M43.1035 189.655V198.276M43.1035 189.655H51.7242M43.1035 198.276H51.7242M43.1035 198.276V206.897M51.7242 189.655V198.276M51.7242 189.655C54.0106 189.655 56.2033 190.563 57.82 192.18C59.4367 193.797 60.3449 195.989 60.3449 198.276M51.7242 198.276H60.3449M51.7242 198.276V206.897M60.3449 198.276V206.897M77.5863 198.276H68.9656M77.5863 198.276V206.897M68.9656 198.276V206.897M86.207 198.276C86.207 195.989 87.1152 193.797 88.7319 192.18C90.3486 190.563 92.5413 189.655 94.8277 189.655M86.207 198.276H94.8277M86.207 198.276V206.897M94.8277 189.655V198.276M94.8277 198.276H103.448M94.8277 198.276V206.897M103.448 198.276H112.069M103.448 198.276C103.448 200.562 102.54 202.755 100.923 204.372C99.3067 205.988 97.114 206.897 94.8277 206.897M137.931 198.276H129.31M137.931 198.276V206.897M137.931 198.276H146.552M129.31 198.276C129.31 200.562 130.219 202.755 131.835 204.372C133.452 205.988 135.645 206.897 137.931 206.897M163.793 198.276H155.172M163.793 198.276H172.414M163.793 198.276V206.897M155.172 198.276H146.552M155.172 198.276V206.897M172.414 189.655V198.276M172.414 189.655H181.035M172.414 198.276H181.035M181.035 189.655V198.276M181.035 198.276H189.655M181.035 198.276V202.586C181.035 203.729 181.489 204.826 182.297 205.634C183.105 206.442 184.202 206.897 185.345 206.897C186.488 206.897 187.584 206.442 188.393 205.634C189.201 204.826 189.655 203.729 189.655 202.586V198.276M224.138 198.276H232.759M224.138 198.276V206.897M232.759 198.276V206.897M25.8621 206.897H17.2415M25.8621 206.897V215.517M17.2415 206.897V215.517M43.1035 206.897H34.4828M43.1035 206.897H51.7242M43.1035 206.897V215.517M34.4828 206.897C34.4828 209.183 35.3911 211.376 37.0078 212.992C38.6245 214.609 40.8172 215.517 43.1035 215.517M51.7242 206.897H60.3449M51.7242 206.897V215.517M60.3449 206.897C60.3449 209.183 59.4367 211.376 57.82 212.992C56.2033 214.609 54.0106 215.517 51.7242 215.517M77.5863 206.897H68.9656M77.5863 206.897V215.517M68.9656 206.897V215.517M94.8277 206.897H86.207M94.8277 206.897V211.207C94.8277 212.35 94.3735 213.446 93.5652 214.255C92.7568 215.063 91.6605 215.517 90.5173 215.517C89.3741 215.517 88.2778 215.063 87.4694 214.255C86.6611 213.446 86.207 212.35 86.207 211.207V206.897M137.931 206.897H146.552M137.931 206.897V215.517M146.552 198.276V206.897M146.552 206.897H155.172M146.552 206.897V215.517M155.172 206.897H163.793M155.172 206.897V211.207C155.172 212.35 155.627 213.446 156.435 214.255C157.243 215.063 158.34 215.517 159.483 215.517C160.626 215.517 161.722 215.063 162.531 214.255C163.339 213.446 163.793 212.35 163.793 211.207V206.897M206.897 206.897V202.586C206.897 201.443 206.443 200.347 205.634 199.538C204.826 198.73 203.729 198.276 202.586 198.276C201.443 198.276 200.347 198.73 199.538 199.538C198.73 200.347 198.276 201.443 198.276 202.586V206.897M206.897 206.897H198.276M206.897 206.897V215.517M198.276 206.897V215.517M232.759 206.897H224.138M232.759 206.897V215.517M224.138 206.897V215.517M25.8621 215.517H17.2415M25.8621 215.517V224.138M17.2415 215.517V224.138M43.1035 215.517H51.7242M77.5863 215.517H68.9656M77.5863 215.517V224.138M68.9656 215.517V224.138M129.31 215.517V211.207C129.31 210.064 128.856 208.967 128.048 208.159C127.24 207.351 126.143 206.897 125 206.897C123.857 206.897 122.761 207.351 121.952 208.159C121.144 208.967 120.69 210.064 120.69 211.207V215.517M129.31 215.517H120.69M129.31 215.517V224.138M120.69 215.517C118.403 215.517 116.211 216.425 114.594 218.042C112.977 219.659 112.069 221.852 112.069 224.138M120.69 215.517V224.138M146.552 215.517H137.931M146.552 215.517V224.138M146.552 215.517C148.838 215.517 151.031 216.425 152.648 218.042C154.264 219.659 155.172 221.852 155.172 224.138M137.931 215.517V224.138M206.897 215.517H198.276M206.897 215.517V224.138M198.276 215.517H189.655M198.276 215.517V224.138M232.759 215.517H224.138M232.759 215.517V224.138M224.138 215.517V224.138M25.8621 224.138H17.2415M25.8621 224.138V232.759M25.8621 224.138H34.4828M17.2415 224.138C17.2415 226.424 18.1497 228.617 19.7664 230.234C21.3831 231.85 23.5758 232.759 25.8621 232.759M77.5863 224.138H68.9656M77.5863 224.138C77.5863 226.424 76.678 228.617 75.0613 230.234C73.4446 231.85 71.2519 232.759 68.9656 232.759M68.9656 224.138H60.3449M68.9656 224.138V232.759M112.069 224.138H120.69M112.069 224.138C112.069 226.424 112.977 228.617 114.594 230.234C116.211 231.85 118.403 232.759 120.69 232.759M120.69 224.138H129.31M120.69 224.138V232.759M129.31 224.138V232.759M129.31 224.138H137.931M146.552 224.138H137.931M146.552 224.138H155.172M146.552 224.138V232.759M137.931 224.138V232.759M155.172 224.138C155.172 226.424 154.264 228.617 152.648 230.234C151.031 231.85 148.838 232.759 146.552 232.759M172.414 224.138C172.414 221.852 173.322 219.659 174.939 218.042C176.556 216.425 178.748 215.517 181.035 215.517M172.414 224.138H181.035M172.414 224.138C172.414 226.424 173.322 228.617 174.939 230.234C176.556 231.85 178.748 232.759 181.035 232.759M181.035 215.517V224.138M181.035 215.517H189.655M181.035 224.138H189.655M181.035 224.138V232.759M189.655 215.517V224.138M189.655 224.138H198.276M189.655 224.138V232.759M198.276 224.138H206.897M198.276 224.138V232.759M206.897 224.138V232.759M206.897 224.138H215.517M232.759 224.138H224.138M232.759 224.138C232.759 226.424 231.85 228.617 230.234 230.234C228.617 231.85 226.424 232.759 224.138 232.759M224.138 224.138H215.517M224.138 224.138V232.759M25.8621 232.759H34.4828M34.4828 224.138V232.759M34.4828 224.138H43.1035M34.4828 232.759H43.1035M43.1035 224.138V232.759M43.1035 224.138H51.7242M43.1035 232.759H51.7242M51.7242 224.138V232.759M51.7242 224.138H60.3449M51.7242 232.759H60.3449M60.3449 224.138V232.759M60.3449 232.759H68.9656M120.69 232.759H129.31M129.31 232.759H137.931M137.931 232.759H146.552M181.035 232.759H189.655M189.655 232.759H198.276M198.276 232.759H206.897M206.897 232.759H215.517M215.517 224.138V232.759M215.517 232.759H224.138M116.379 51.7241C117.523 51.7241 118.619 52.1782 119.427 52.9866C120.236 53.7949 120.69 54.8913 120.69 56.0344C120.69 57.1776 120.236 58.274 119.427 59.0823C118.619 59.8907 117.523 60.3448 116.379 60.3448C115.236 60.3448 114.14 59.8907 113.332 59.0823C112.523 58.274 112.069 57.1776 112.069 56.0344C112.069 54.8913 112.523 53.7949 113.332 52.9866C114.14 52.1782 115.236 51.7241 116.379 51.7241ZM133.621 60.3448C134.764 60.3448 135.86 60.7989 136.669 61.6073C137.477 62.4156 137.931 63.512 137.931 64.6551C137.931 65.7983 137.477 66.8947 136.669 67.703C135.86 68.5113 134.764 68.9655 133.621 68.9655C132.478 68.9655 131.381 68.5113 130.573 67.703C129.765 66.8947 129.31 65.7983 129.31 64.6551C129.31 63.512 129.765 62.4156 130.573 61.6073C131.381 60.7989 132.478 60.3448 133.621 60.3448ZM142.241 68.9655C143.385 68.9655 144.481 69.4196 145.289 70.2279C146.098 71.0363 146.552 72.1326 146.552 73.2758C146.552 74.419 146.098 75.5153 145.289 76.3237C144.481 77.132 143.385 77.5862 142.241 77.5862C141.098 77.5862 140.002 77.132 139.194 76.3237C138.385 75.5153 137.931 74.419 137.931 73.2758C137.931 72.1326 138.385 71.0363 139.194 70.2279C140.002 69.4196 141.098 68.9655 142.241 68.9655ZM73.2759 86.2068C74.4191 86.2068 75.5155 86.661 76.3238 87.4693C77.1322 88.2777 77.5863 89.374 77.5863 90.5172C77.5863 91.6604 77.1322 92.7567 76.3238 93.5651C75.5155 94.3734 74.4191 94.8275 73.2759 94.8275C72.1328 94.8275 71.0364 94.3734 70.2281 93.5651C69.4197 92.7567 68.9656 91.6604 68.9656 90.5172C68.9656 89.374 69.4197 88.2777 70.2281 87.4693C71.0364 86.661 72.1328 86.2068 73.2759 86.2068ZM150.862 86.2068C152.005 86.2068 153.102 86.661 153.91 87.4693C154.718 88.2777 155.172 89.374 155.172 90.5172C155.172 91.6604 154.718 92.7567 153.91 93.5651C153.102 94.3734 152.005 94.8275 150.862 94.8275C149.719 94.8275 148.623 94.3734 147.814 93.5651C147.006 92.7567 146.552 91.6604 146.552 90.5172C146.552 89.374 147.006 88.2777 147.814 87.4693C148.623 86.661 149.719 86.2068 150.862 86.2068ZM73.2759 137.931C74.4191 137.931 75.5155 138.385 76.3238 139.193C77.1322 140.002 77.5863 141.098 77.5863 142.241C77.5863 143.385 77.1322 144.481 76.3238 145.289C75.5155 146.098 74.4191 146.552 73.2759 146.552C72.1328 146.552 71.0364 146.098 70.2281 145.289C69.4197 144.481 68.9656 143.385 68.9656 142.241C68.9656 141.098 69.4197 140.002 70.2281 139.193C71.0364 138.385 72.1328 137.931 73.2759 137.931ZM159.483 137.931C160.626 137.931 161.722 138.385 162.531 139.193C163.339 140.002 163.793 141.098 163.793 142.241C163.793 143.385 163.339 144.481 162.531 145.289C161.722 146.098 160.626 146.552 159.483 146.552C158.34 146.552 157.243 146.098 156.435 145.289C155.627 144.481 155.172 143.385 155.172 142.241C155.172 141.098 155.627 140.002 156.435 139.193C157.243 138.385 158.34 137.931 159.483 137.931ZM90.5173 146.552C91.6605 146.552 92.7568 147.006 93.5652 147.814C94.3735 148.622 94.8277 149.719 94.8277 150.862C94.8277 152.005 94.3735 153.102 93.5652 153.91C92.7568 154.718 91.6605 155.172 90.5173 155.172C89.3741 155.172 88.2778 154.718 87.4694 153.91C86.6611 153.102 86.207 152.005 86.207 150.862C86.207 149.719 86.6611 148.622 87.4694 147.814C88.2778 147.006 89.3741 146.552 90.5173 146.552ZM176.724 172.414C177.867 172.414 178.964 172.868 179.772 173.676C180.58 174.485 181.035 175.581 181.035 176.724C181.035 177.867 180.58 178.964 179.772 179.772C178.964 180.58 177.867 181.034 176.724 181.034C175.581 181.034 174.485 180.58 173.676 179.772C172.868 178.964 172.414 177.867 172.414 176.724C172.414 175.581 172.868 174.485 173.676 173.676C174.485 172.868 175.581 172.414 176.724 172.414ZM99.138 215.517C100.281 215.517 101.378 215.971 102.186 216.78C102.994 217.588 103.448 218.684 103.448 219.828C103.448 220.971 102.994 222.067 102.186 222.875C101.378 223.684 100.281 224.138 99.138 224.138C97.9948 224.138 96.8985 223.684 96.0901 222.875C95.2818 222.067 94.8277 220.971 94.8277 219.828C94.8277 218.684 95.2818 217.588 96.0901 216.78C96.8985 215.971 97.9948 215.517 99.138 215.517Z" stroke="black" stroke-width="0.5"/>
<path d="M110.056 121.639C114.056 129.5 120.5 135.944 128.361 139.944L134.472 133.833C135.25 133.056 136.333 132.833 137.306 133.139C140.417 134.167 143.75 134.722 147.222 134.722C147.959 134.722 148.665 135.015 149.186 135.536C149.707 136.057 150 136.763 150 137.5V147.222C150 147.959 149.707 148.665 149.186 149.186C148.665 149.707 147.959 150 147.222 150C134.698 150 122.687 145.025 113.831 136.169C104.975 127.313 100 115.302 100 102.778C100 102.041 100.293 101.335 100.814 100.814C101.335 100.293 102.041 100 102.778 100H112.5C113.237 100 113.943 100.293 114.464 100.814C114.985 101.335 115.278 102.041 115.278 102.778C115.278 106.25 115.833 109.583 116.861 112.694C117.167 113.667 116.944 114.75 116.167 115.528L110.056 121.639Z" fill="#F74808"/>
</svg>
