<svg width="223.500000" height="258.119385" viewBox="0 0 223.5 258.119" fill="none" xmlns="http://www.w3.org/2000/svg" xmlns:xlink="http://www.w3.org/1999/xlink">
	<desc>
			Created with Pixso.
	</desc>
	<defs>
		<clipPath id="clip61_18">
			<rect id="фрейм 20" width="223.500000" height="258.119385" fill="white" fill-opacity="0"/>
		</clipPath>
	</defs>
	<g clip-path="url(#clip61_18)">
		<path id="Звезда 1" d="M112 0L0 64.65L0 193.97L112 258.11L223.5 193.97L223.5 64.65L112 0Z" fill="#000000" fill-opacity="1.000000" fill-rule="evenodd"/>
		<path id="polygon" d="M221.74 192.3L151.39 232.91L139.02 240.06L119.34 251.41L87.22 209.26L155.57 200.64L165.47 199.4L221.74 192.3Z" fill="#E14802" fill-opacity="1.000000" fill-rule="nonzero"/>
		<path id="polygon" d="M104.38 6.32L136.36 48.16L67.74 56.98L57.92 58.24L2 65.43L71.69 25.19L83.93 18.12L104.38 6.32Z" fill="#E14802" fill-opacity="1.000000" fill-rule="nonzero"/>
		<path id="polygon" d="M54.06 67.48L27.56 131L23.76 140.14L16.02 158.67L12.09 168.11L2 192.3L2 74.15L54.06 67.48Z" fill="#FFFFFF" fill-opacity="1.000000" fill-rule="nonzero"/>
		<path id="polygon" d="M29.77 148.02L44.37 167.18L50.56 175.32L71.23 202.41L77.4 210.5L111.87 255.73L41.38 215.04L28.78 207.76L9.5 196.63L20.02 171.42L23.96 161.98L29.77 148.02Z" fill="#E14802" fill-opacity="1.000000" fill-rule="nonzero"/>
		<path id="polygon" d="M111.87 2L181.72 42.32L194.09 49.47L214.2 61.07L193.92 109.36L167.48 74.76L167.37 74.61L161.28 66.62L152.25 54.84L146.17 46.89L111.87 2Z" fill="#E14802" fill-opacity="1.000000" fill-rule="nonzero"/>
		<path id="polygon" d="M221.74 65.42L221.74 183.43L169.41 190.03L196.14 126.39L199.97 117.27L221.74 65.42Z" fill="#FFFFFF" fill-opacity="1.000000" fill-rule="nonzero"/>
		<path id="path" d="M111.87 187.7C79.43 187.7 53.04 161.31 53.04 128.87C53.04 96.42 79.43 70.04 111.87 70.04C144.31 70.04 170.7 96.42 170.7 128.87C170.7 161.31 144.31 187.7 111.87 187.7ZM111.87 72.09C80.56 72.09 55.09 97.56 55.09 128.87C55.09 160.17 80.56 185.65 111.87 185.65C143.17 185.65 168.65 160.17 168.65 128.87C168.65 97.56 143.17 72.09 111.87 72.09Z" fill="#FFFFFF" fill-opacity="1.000000" fill-rule="nonzero"/>
		<path id="path" d="M57.06 110.48C62.33 115.69 69.55 118.91 77.54 118.91C93.63 118.91 106.66 105.88 106.66 89.79C106.66 83.15 104.41 77.05 100.67 72.15C80.18 76.17 63.6 91.02 57.06 110.48Z" fill="#FFFFFF" fill-opacity="1.000000" fill-rule="nonzero"/>
		<path id="path" d="M151.37 100.46C164.08 116.53 164.42 139.81 153.02 156.67C140.39 175.43 115.57 183.3 94.67 174.38C114.9 181.39 138.62 173.86 150.77 156.28C162.5 139.92 162.63 117.15 151.37 100.46Z" fill="#FFFFFF" fill-opacity="1.000000" fill-rule="nonzero"/>
		<ellipse id="circle" cx="110.849976" cy="127.580078" rx="5.730003" ry="5.730000" fill="#FFFFFF" fill-opacity="1.000000"/>
	</g>
</svg>
