<svg width="909" height="896" viewBox="0 0 909 896" fill="none" xmlns="http://www.w3.org/2000/svg">
<path d="M173 236L131.5 588.5L414.5 798.5L737.5 658.5L778.5 310L496 98.5C361.223 155.908 307.514 177.979 173 236Z" fill="#D9D9D9" stroke="black"/>
<path d="M461.53 112.864C463.73 111.922 466.289 112.671 467.634 114.651L536.982 216.75C539.195 220.008 536.946 224.428 533.009 224.556L199.801 235.434C194.275 235.614 192.587 228.017 197.67 225.84L461.53 112.864Z" fill="#FF3F04"/>
<path d="M169.63 271.945C169.913 269.569 171.839 267.725 174.226 267.549L297.313 258.44C301.242 258.15 303.948 262.305 302.093 265.78L145.15 559.914C142.547 564.792 135.121 562.461 135.774 556.97L169.63 271.945Z" fill="white"/>
<path d="M160.14 609.646C158.217 608.222 157.573 605.634 158.604 603.474L211.778 492.093C213.476 488.538 218.426 488.251 220.523 491.586L398 773.805C400.943 778.485 395.234 783.775 390.791 780.484L160.14 609.646Z" fill="#FF3F04"/>
<path d="M447.555 783.579C445.357 784.528 442.796 783.787 441.445 781.811L371.78 679.928C369.557 676.677 371.792 672.25 375.729 672.109L708.901 660.197C714.427 659.999 716.138 667.592 711.062 669.784L447.555 783.579Z" fill="#FF3F04"/>
<path d="M741.169 622.642C740.878 625.017 738.944 626.854 736.557 627.022L613.437 635.678C609.508 635.954 606.817 631.789 608.684 628.321L766.706 334.765C769.327 329.897 776.744 332.255 776.071 337.743L741.169 622.642Z" fill="white"/>
<path d="M748.806 287.262C750.724 288.693 751.359 291.283 750.321 293.439L696.77 404.64C695.06 408.189 690.109 408.46 688.023 405.118L511.504 122.299C508.576 117.608 514.303 112.338 518.735 115.644L748.806 287.262Z" fill="#FF3F04"/>
<path fill-rule="evenodd" clip-rule="evenodd" d="M454.5 646C563.576 646 652 557.576 652 448.5C652 339.424 563.576 251 454.5 251C345.424 251 257 339.424 257 448.5C257 557.576 345.424 646 454.5 646ZM454.5 627C552.531 627 632 547.531 632 449.5C632 351.469 552.531 272 454.5 272C356.469 272 277 351.469 277 449.5C277 547.531 356.469 627 454.5 627Z" fill="white"/>
<circle cx="439" cy="418" r="16" fill="white"/>
<path fill-rule="evenodd" clip-rule="evenodd" d="M491.688 607.881C585.074 582.979 640.592 487.087 615.69 393.701C615.302 392.246 614.897 390.801 614.475 389.366C616.54 394.765 618.343 400.323 619.865 406.03C643.863 496.028 588.873 588.837 497.041 613.325C436.383 629.5 374.822 611.82 333.1 572.015C375.374 607.964 434.009 623.262 491.688 607.881Z" fill="white"/>
<path fill-rule="evenodd" clip-rule="evenodd" d="M296.106 329.51C319.254 298.97 351.059 275.353 387.867 262.314C419.572 270.47 443 299.249 443 333.5C443 374.093 410.093 407 369.5 407C328.907 407 296 374.093 296 333.5C296 332.161 296.036 330.831 296.106 329.51Z" fill="white"/>
</svg>
