<svg width="563.330078" height="211.949951" viewBox="0 0 563.33 211.95" fill="none" xmlns="http://www.w3.org/2000/svg" xmlns:xlink="http://www.w3.org/1999/xlink">
	<desc>
			Created with Pixso.
	</desc>
	<defs>
		<clipPath id="clip38_1">
			<rect id="Ресурс 9.svg" width="563.330017" height="211.949997" fill="white" fill-opacity="0"/>
		</clipPath>
	</defs>
	<g clip-path="url(#clip38_1)">
		<path id="polygon" d="M183.56 158.97L124.79 192.89L114.46 198.86L98.02 208.34L71.18 173.13L128.28 165.93L136.55 164.89L183.56 158.97Z" fill="#E14802" fill-opacity="1.000000" fill-rule="nonzero"/>
		<path id="polygon" d="M85.52 3.6L112.23 38.55L54.91 45.91L46.71 46.98L0 52.98L58.22 19.37L68.44 13.47L85.52 3.6Z" fill="#E14802" fill-opacity="1.000000" fill-rule="nonzero"/>
		<path id="polygon" d="M43.49 54.68L21.36 107.76L18.16 115.39L11.71 130.87L8.42 138.75L0 158.97L0 60.27L43.49 54.68Z" fill="#FFFFFF" fill-opacity="1.000000" fill-rule="nonzero"/>
		<path id="polygon" d="M23.2 121.98L35.38 137.98L40.56 144.78L57.83 167.41L62.98 174.17L91.78 211.95L32.89 177.95L22.37 171.88L6.26 162.58L15.05 141.52L18.34 133.64L23.2 121.98Z" fill="#E14802" fill-opacity="1.000000" fill-rule="nonzero"/>
		<path id="polygon" d="M91.78 0L150.12 33.68L160.46 39.65L177.25 49.35L160.32 89.68L138.23 60.78L138.14 60.66L133.05 53.99L125.52 44.14L120.44 37.5L91.78 0Z" fill="#E14802" fill-opacity="1.000000" fill-rule="nonzero"/>
		<path id="polygon" d="M183.56 52.98L183.56 151.55L139.84 157.07L162.17 103.9L165.37 96.29L183.56 52.98Z" fill="#FFFFFF" fill-opacity="1.000000" fill-rule="nonzero"/>
		<path id="path" d="M91.77 155.12C64.67 155.12 42.63 133.07 42.63 105.98C42.63 78.89 64.67 56.84 91.77 56.84C118.88 56.84 140.92 78.89 140.92 105.98C140.92 133.07 118.88 155.12 91.77 155.12ZM91.77 58.54C65.62 58.54 44.34 79.83 44.34 105.98C44.34 132.13 65.62 153.41 91.77 153.41C117.93 153.41 139.21 132.13 139.21 105.98C139.21 79.83 117.93 58.54 91.77 58.54Z" fill="#FFFFFF" fill-opacity="1.000000" fill-rule="nonzero"/>
		<path id="path" d="M46 90.62C50.38 94.97 56.42 97.66 63.1 97.66C76.53 97.66 87.41 86.77 87.41 73.33C87.41 67.79 85.54 62.7 82.41 58.61C65.31 61.97 51.45 74.37 46 90.62Z" fill="#FFFFFF" fill-opacity="1.000000" fill-rule="nonzero"/>
		<path id="path" d="M124.77 82.25C135.39 95.67 135.67 115.12 126.15 129.21C115.61 144.88 94.86 151.45 77.4 144C94.29 149.87 114.11 143.58 124.26 128.89C134.07 115.23 134.17 96.18 124.77 82.25Z" fill="#FFFFFF" fill-opacity="1.000000" fill-rule="nonzero"/>
		<circle id="circle" cx="90.919922" cy="104.899902" r="4.790001" fill="#FFFFFF" fill-opacity="1.000000"/>
		<path id="path" d="M397.47 46.23C391.42 42.51 383.47 40.65 373.63 40.65L349.17 40.65L349.17 119.55L351.99 119.55L351.99 89.57L373.63 89.57C383.47 89.57 391.42 87.71 397.47 83.99C403.52 80.26 406.54 73.98 406.54 65.11C406.54 56.24 403.51 49.95 397.47 46.23ZM373.74 86.86L351.99 86.86L351.99 43.35L373.74 43.35C382.91 43.35 390.2 44.98 395.61 48.25C401.02 51.52 403.73 57.14 403.73 65.1C403.73 79.6 393.73 86.86 373.74 86.86Z" fill="#FFFFFF" fill-opacity="1.000000" fill-rule="nonzero"/>
		<path id="path" d="M466.9 80.15C471.82 76.43 474.28 70.89 474.28 63.52C474.28 58.19 472.93 53.81 470.22 50.39C467.51 46.97 464.06 44.49 459.85 42.95C455.64 41.41 451.21 40.64 446.55 40.64L416.91 40.64L416.91 119.55L419.73 119.55L419.73 86.41L445.77 86.41L475.75 119.55L479.24 119.55L449.15 86.3C456.06 85.92 461.98 83.87 466.9 80.15ZM419.73 83.7L419.73 43.35L446.56 43.35C453.32 43.35 459.17 44.98 464.09 48.25C469.01 51.52 471.47 56.61 471.47 63.52C471.47 70.43 469.03 75.62 464.14 78.85C459.25 82.08 453.39 83.7 446.56 83.7L419.73 83.7Z" fill="#FFFFFF" fill-opacity="1.000000" fill-rule="nonzero"/>
		<path id="path" d="M558.65 99.6C561.77 93.36 563.33 86.86 563.33 80.1C563.33 73.33 561.77 66.83 558.65 60.6C555.53 54.36 550.9 49.29 544.78 45.38C538.67 41.47 531.28 39.52 522.64 39.52C514 39.52 506.6 41.48 500.44 45.38C494.28 49.29 489.64 54.36 486.52 60.6C483.4 66.83 481.84 73.33 481.84 80.1C481.84 86.86 483.4 93.36 486.52 99.6C489.64 105.84 494.28 110.91 500.44 114.82C506.6 118.73 514 120.68 522.64 120.68C531.28 120.68 538.65 118.73 544.78 114.82C550.9 110.91 555.53 105.84 558.65 99.6ZM543.26 112.51C537.55 116.16 530.67 117.98 522.63 117.98C514.59 117.98 507.6 116.16 501.89 112.51C496.18 108.87 491.88 104.15 488.98 98.36C486.09 92.57 484.64 86.49 484.64 80.1C484.64 73.71 486.09 67.62 488.98 61.84C491.87 56.05 496.17 51.34 501.89 47.69C507.6 44.05 514.51 42.22 522.63 42.22C530.75 42.22 537.55 44.04 543.26 47.69C548.96 51.34 553.27 56.05 556.17 61.84C559.06 67.62 560.51 73.71 560.51 80.1C560.51 86.49 559.06 92.57 556.17 98.36C553.28 104.15 548.96 108.86 543.26 112.51Z" fill="#FFFFFF" fill-opacity="1.000000" fill-rule="nonzero"/>
		<path id="path" d="M273.18 115.13C273.18 116.81 274.26 117.89 275.92 117.89C277.57 117.89 278.66 116.81 278.66 115.13L278.66 58.21L273.17 52.39L273.18 115.13Z" fill="#FFFFFF" fill-opacity="1.000000" fill-rule="nonzero"/>
		<path id="path" d="M255.47 80.08C250.52 77.07 242.16 75.53 229.92 75.37C219.87 75.24 212.86 74.17 209.08 72.19C205.57 70.35 203.86 67.26 203.86 62.74C203.86 57.25 206.09 52.99 210.68 49.73C215.36 46.41 221.75 44.72 229.68 44.72C230.07 44.72 230.47 44.71 230.87 44.69C230.93 44.69 230.99 44.71 231.06 44.71L273.79 44.78C274.01 44.81 274.26 44.89 274.47 45.07L274.64 45.28L275.51 46.35L333.61 116.82C334.24 117.45 335.14 117.88 336.03 117.88C337.7 117.88 338.77 116.72 338.77 114.92L338.77 43.07C338.77 41.27 337.69 40.11 336.03 40.11C334.37 40.11 333.29 41.27 333.29 43.07L333.29 107.81L278.46 41.28C278.38 41.18 278.29 41.11 278.2 41.02C278.1 40.86 277.99 40.71 277.85 40.57C277.31 40.03 276.53 39.72 275.7 39.71L231.07 39.64C231.07 39.64 230.99 39.64 230.95 39.65C221.77 39.65 212.91 41.54 207.21 45.65C201.35 49.87 198.38 55.54 198.38 62.52C198.38 69.04 200.89 73.82 205.84 76.71C210.61 79.5 218.48 80.86 229.91 80.86C240.23 80.86 247.59 82.06 251.79 84.41C255.77 86.65 257.71 90.2 257.71 95.25C257.71 100.74 255.45 104.99 250.79 108.26C246.04 111.59 239.46 113.27 231.23 113.27C223.9 113.27 218.35 112.53 214.75 111.07C210.86 109.45 208.06 107.96 206.38 106.63C204.79 105.43 203.44 103.88 202.35 101.98C202.04 101.47 201.42 100.82 200.23 100.65L200.06 100.63L199.89 100.65C198.39 100.79 197.42 101.76 197.28 103.39C197.28 103.91 197.41 104.42 197.69 104.99C199.02 107.26 200.8 109.28 202.98 110.99C205.13 112.68 208.28 114.38 212.35 116.03C216.6 117.7 222.95 118.55 231.22 118.55C240.85 118.55 248.63 116.5 254.34 112.47C260.21 108.32 263.18 102.61 263.18 95.49C263.18 88.37 260.57 83.21 255.47 80.08Z" fill="#FFFFFF" fill-opacity="1.000000" fill-rule="nonzero"/>
		<path id="path" d="M218.5 146.69C216.4 145.48 214.05 144.87 211.45 144.87C208.85 144.87 206.71 145.47 204.7 146.66C202.69 147.85 201.13 149.52 200.03 151.64L200.03 145.08L197.47 145.08L197.47 183.31L200.14 183.31L200.14 166.6C201.24 168.66 202.79 170.28 204.79 171.43C206.78 172.59 209.01 173.17 211.46 173.17C214.06 173.17 216.41 172.57 218.51 171.38C220.61 170.19 222.26 168.52 223.45 166.36C224.64 164.21 225.24 161.75 225.24 159.02C225.24 156.28 224.64 153.84 223.45 151.71C222.26 149.57 220.6 147.89 218.5 146.69ZM221.09 165.11C220.11 166.89 218.77 168.28 217.06 169.28C215.35 170.28 213.43 170.78 211.29 170.78C209.15 170.78 207.24 170.28 205.55 169.28C203.86 168.28 202.52 166.9 201.55 165.11C200.57 163.33 200.08 161.3 200.08 159.02C200.08 156.74 200.57 154.71 201.55 152.92C202.53 151.14 203.86 149.75 205.55 148.77C207.24 147.77 209.15 147.27 211.29 147.27C213.43 147.27 215.35 147.77 217.06 148.77C218.77 149.77 220.11 151.16 221.09 152.92C222.07 154.71 222.56 156.74 222.56 159.02C222.56 161.3 222.07 163.33 221.09 165.11Z" fill="#FFFFFF" fill-opacity="1.000000" fill-rule="nonzero"/>
		<path id="path" d="M247.12 144.87C244.56 144.87 242.33 145.39 240.45 146.45C238.56 147.5 237.14 148.99 236.18 150.91L236.18 133.34L233.51 133.34L233.51 172.96L236.18 172.96L236.18 158.12C236.18 154.81 237.12 152.17 239.01 150.22C240.9 148.25 243.48 147.28 246.75 147.28C249.6 147.28 251.81 148.1 253.4 149.74C254.98 151.38 255.78 153.75 255.78 156.89L255.78 172.96L258.45 172.96L258.45 156.67C258.45 152.86 257.44 149.94 255.41 147.91C253.38 145.88 250.61 144.87 247.12 144.87Z" fill="#FFFFFF" fill-opacity="1.000000" fill-rule="nonzero"/>
		<path id="path" d="M287.51 146.69C285.39 145.48 283.01 144.87 280.38 144.87C277.75 144.87 275.37 145.48 273.25 146.69C271.13 147.89 269.47 149.58 268.26 151.74C267.04 153.89 266.44 156.32 266.44 159.03C266.44 161.74 267.04 164.17 268.26 166.32C269.47 168.47 271.13 170.16 273.25 171.37C275.37 172.58 277.74 173.19 280.38 173.19C283.01 173.19 285.39 172.59 287.51 171.37C289.63 170.16 291.29 168.48 292.5 166.32C293.71 164.17 294.32 161.74 294.32 159.03C294.32 156.32 293.71 153.89 292.5 151.74C291.29 149.59 289.62 147.91 287.51 146.69ZM290.13 165.11C289.15 166.89 287.82 168.28 286.13 169.28C284.44 170.28 282.53 170.78 280.39 170.78C278.25 170.78 276.34 170.28 274.65 169.28C272.96 168.28 271.62 166.9 270.65 165.11C269.67 163.33 269.18 161.3 269.18 159.02C269.18 156.74 269.67 154.71 270.65 152.92C271.63 151.14 272.96 149.75 274.65 148.77C276.34 147.77 278.25 147.27 280.39 147.27C282.53 147.27 284.44 147.77 286.13 148.77C287.82 149.77 289.16 151.16 290.13 152.92C291.1 154.71 291.6 156.74 291.6 159.02C291.6 161.3 291.1 163.33 290.13 165.11Z" fill="#FFFFFF" fill-opacity="1.000000" fill-rule="nonzero"/>
		<path id="path" d="M310.98 170.87C309.26 170.87 307.98 170.4 307.1 169.45C306.24 168.51 305.79 167.13 305.79 165.31L305.79 147.37L314.66 147.37L314.66 145.07L305.79 145.07L305.79 138.98L303.13 138.98L303.13 145.07L298 145.07L298 147.37L303.13 147.37L303.13 165.58C303.13 167.97 303.79 169.83 305.1 171.16C306.43 172.49 308.29 173.16 310.72 173.16C311.82 173.16 312.88 172.99 313.9 172.65C314.92 172.31 315.76 171.82 316.44 171.18L315.32 169.31C314.18 170.34 312.73 170.87 310.98 170.87Z" fill="#FFFFFF" fill-opacity="1.000000" fill-rule="nonzero"/>
		<path id="path" d="M340.86 146.69C338.74 145.48 336.36 144.87 333.73 144.87C331.1 144.87 328.72 145.48 326.6 146.69C324.48 147.89 322.82 149.58 321.6 151.74C320.4 153.89 319.79 156.32 319.79 159.03C319.79 161.74 320.4 164.17 321.6 166.32C322.82 168.47 324.48 170.16 326.6 171.37C328.72 172.58 331.09 173.19 333.73 173.19C336.37 173.19 338.74 172.59 340.86 171.37C342.98 170.16 344.64 168.48 345.85 166.32C347.06 164.17 347.67 161.74 347.67 159.03C347.67 156.32 347.06 153.89 345.85 151.74C344.64 149.59 342.97 147.91 340.86 146.69ZM343.48 165.11C342.5 166.89 341.17 168.28 339.48 169.28C337.79 170.28 335.88 170.78 333.74 170.78C331.6 170.78 329.69 170.28 328 169.28C326.31 168.28 324.97 166.9 324 165.11C323.01 163.33 322.53 161.3 322.53 159.02C322.53 156.74 323.01 154.71 324 152.92C324.98 151.14 326.31 149.75 328 148.77C329.69 147.77 331.6 147.27 333.74 147.27C335.88 147.27 337.79 147.77 339.48 148.77C341.17 149.77 342.51 151.16 343.48 152.92C344.46 154.71 344.95 156.74 344.95 159.02C344.95 161.3 344.46 163.33 343.48 165.11Z" fill="#FFFFFF" fill-opacity="1.000000" fill-rule="nonzero"/>
		<path id="path" d="M378.47 151.39C377.37 149.33 375.78 147.72 373.72 146.58C371.65 145.44 369.34 144.87 366.78 144.87C364.22 144.87 361.82 145.44 359.71 146.58C357.59 147.72 355.93 149.32 354.72 151.39C353.51 153.46 352.9 155.78 352.9 158.38C352.9 160.97 353.51 163.31 354.72 165.37C355.93 167.44 357.59 169.05 359.71 170.2C361.83 171.36 364.19 171.94 366.78 171.94C369.37 171.94 371.59 171.39 373.61 170.28C375.64 169.18 377.22 167.61 378.36 165.58L378.36 170.28C378.36 173.98 377.47 176.71 375.69 178.48C373.91 180.24 371.17 181.12 367.47 181.12C365.26 181.12 363.18 180.76 361.22 180.05C359.26 179.34 357.59 178.34 356.2 177.06L354.76 179.09C356.15 180.48 357.98 181.56 360.26 182.35C362.54 183.13 364.96 183.52 367.52 183.52C372.04 183.52 375.42 182.42 377.67 180.21C379.91 178 381.03 174.59 381.03 169.96L381.03 145.08L378.47 145.08L378.47 151.39ZM376.95 164.18C375.97 165.87 374.61 167.19 372.87 168.13C371.12 169.07 369.17 169.55 367 169.55C364.83 169.55 362.88 169.08 361.15 168.13C359.42 167.19 358.07 165.87 357.09 164.18C356.11 162.49 355.62 160.56 355.62 158.39C355.62 156.22 356.11 154.3 357.09 152.62C358.07 150.95 359.42 149.64 361.15 148.7C362.88 147.75 364.82 147.28 367 147.28C369.18 147.28 371.13 147.75 372.87 148.7C374.61 149.64 375.98 150.95 376.95 152.62C377.93 154.28 378.42 156.22 378.42 158.39C378.42 160.56 377.93 162.49 376.95 164.18Z" fill="#FFFFFF" fill-opacity="1.000000" fill-rule="nonzero"/>
		<path id="path" d="M394.92 151.17L394.92 145.08L392.36 145.08L392.36 172.95L395.03 172.95L395.03 158.42C395.03 154.98 395.9 152.28 397.65 150.34C399.39 148.39 401.82 147.42 404.91 147.42L405.55 147.48L405.55 144.86C402.95 144.86 400.74 145.39 398.93 146.49C397.12 147.58 395.77 149.14 394.92 151.17Z" fill="#FFFFFF" fill-opacity="1.000000" fill-rule="nonzero"/>
		<path id="path" d="M422.31 144.87C420.17 144.87 418.13 145.22 416.17 145.91C414.21 146.6 412.54 147.57 411.15 148.82L412.48 150.74C413.65 149.67 415.09 148.82 416.78 148.17C418.47 147.53 420.24 147.22 422.09 147.22C424.8 147.22 426.85 147.89 428.26 149.25C429.67 150.6 430.37 152.58 430.37 155.17L430.37 157.42L420.81 157.42C417.18 157.42 414.54 158.14 412.88 159.58C411.22 161.02 410.4 162.89 410.4 165.21C410.4 167.52 411.3 169.52 413.1 170.98C414.9 172.44 417.35 173.17 420.44 173.17C422.82 173.17 424.87 172.72 426.58 171.81C428.29 170.9 429.59 169.63 430.48 167.99L430.48 172.96L433.04 172.96L433.04 155.28C433.04 151.87 432.11 149.28 430.26 147.52C428.41 145.75 425.77 144.87 422.31 144.87ZM430.37 164.73C429.55 166.76 428.33 168.31 426.71 169.38C425.09 170.45 423.12 170.98 420.81 170.98C418.35 170.98 416.45 170.46 415.1 169.4C413.75 168.35 413.07 166.92 413.07 165.1C413.07 163.28 413.68 161.99 414.91 160.99C416.14 159.99 418.12 159.49 420.86 159.49L430.36 159.49L430.37 164.73Z" fill="#FFFFFF" fill-opacity="1.000000" fill-rule="nonzero"/>
		<path id="path" d="M465.08 146.69C462.98 145.48 460.63 144.87 458.03 144.87C455.43 144.87 453.29 145.47 451.28 146.66C449.27 147.85 447.71 149.52 446.61 151.64L446.61 145.08L444.05 145.08L444.05 183.31L446.72 183.31L446.72 166.6C447.82 168.66 449.37 170.28 451.37 171.43C453.36 172.59 455.59 173.17 458.04 173.17C460.64 173.17 462.99 172.57 465.09 171.38C467.19 170.19 468.84 168.52 470.03 166.36C471.22 164.21 471.82 161.75 471.82 159.02C471.82 156.28 471.22 153.84 470.03 151.71C468.84 149.57 467.18 147.89 465.08 146.69ZM467.67 165.11C466.69 166.89 465.35 168.28 463.64 169.28C461.93 170.28 460.01 170.78 457.87 170.78C455.73 170.78 453.82 170.28 452.13 169.28C450.44 168.28 449.1 166.9 448.13 165.11C447.15 163.33 446.66 161.3 446.66 159.02C446.66 156.74 447.15 154.71 448.13 152.92C449.11 151.14 450.44 149.75 452.13 148.77C453.82 147.77 455.73 147.27 457.87 147.27C460.01 147.27 461.93 147.77 463.64 148.77C465.35 149.77 466.69 151.16 467.67 152.92C468.65 154.71 469.14 156.74 469.14 159.02C469.14 161.3 468.65 163.33 467.67 165.11Z" fill="#FFFFFF" fill-opacity="1.000000" fill-rule="nonzero"/>
		<path id="path" d="M493.7 144.87C491.14 144.87 488.91 145.39 487.03 146.45C485.14 147.5 483.72 148.99 482.76 150.91L482.76 133.34L480.09 133.34L480.09 172.96L482.76 172.96L482.76 158.12C482.76 154.81 483.7 152.17 485.59 150.22C487.48 148.25 490.06 147.28 493.33 147.28C496.18 147.28 498.39 148.1 499.98 149.74C501.56 151.38 502.36 153.75 502.36 156.89L502.36 172.96L505.03 172.96L505.03 156.67C505.03 152.86 504.02 149.94 501.99 147.91C499.96 145.88 497.19 144.87 493.7 144.87Z" fill="#FFFFFF" fill-opacity="1.000000" fill-rule="nonzero"/>
		<path id="path" d="M533.19 146.66C531.18 145.47 528.9 144.87 526.38 144.87C523.84 144.87 521.57 145.48 519.55 146.69C517.52 147.89 515.93 149.58 514.77 151.74C513.61 153.89 513.03 156.32 513.03 159.03C513.03 161.74 513.64 164.21 514.87 166.35C516.09 168.49 517.8 170.16 519.96 171.37C522.14 172.58 524.62 173.19 527.39 173.19C529.53 173.19 531.51 172.8 533.34 172.02C535.17 171.24 536.69 170.12 537.9 168.66L536.36 166.9C535.33 168.18 534.03 169.15 532.49 169.81C530.94 170.47 529.26 170.8 527.44 170.8C525.23 170.8 523.25 170.34 521.49 169.41C519.73 168.49 518.33 167.18 517.3 165.49C516.27 163.8 515.71 161.87 515.64 159.7L539.62 159.7L539.67 158.95C539.67 156.25 539.09 153.82 537.93 151.69C536.77 149.56 535.2 147.85 533.19 146.66ZM515.7 157.58C515.84 155.59 516.39 153.8 517.33 152.21C518.27 150.63 519.53 149.39 521.09 148.53C522.65 147.66 524.42 147.22 526.38 147.22C528.34 147.22 530.09 147.67 531.67 148.55C533.24 149.44 534.5 150.67 535.46 152.23C536.42 153.8 536.96 155.58 537.06 157.57L515.7 157.58Z" fill="#FFFFFF" fill-opacity="1.000000" fill-rule="nonzero"/>
		<path id="path" d="M550.51 151.17L550.51 145.08L547.95 145.08L547.95 172.95L550.62 172.95L550.62 158.42C550.62 154.98 551.49 152.28 553.24 150.34C554.98 148.39 557.4 147.42 560.5 147.42L561.14 147.48L561.14 144.86C558.53 144.86 556.33 145.39 554.52 146.49C552.71 147.58 551.36 149.14 550.51 151.17Z" fill="#FFFFFF" fill-opacity="1.000000" fill-rule="nonzero"/>
	</g>
</svg>
