<?xml version="1.0" encoding="UTF-8"?>
<svg id="_Слой_2" data-name="Слой 2" xmlns="http://www.w3.org/2000/svg" viewBox="0 0 219.74 253.73">
  <defs>
    <style>
      .cls-1 {
        fill: #fff;
      }

      .cls-2 {
        fill: #e14802;
      }
    </style>
  </defs>
  <g id="_Слой_1-2" data-name="Слой 1">
    <g>
      <g>
        <polygon class="cls-2" points="219.74 190.3 149.39 230.91 137.02 238.06 117.34 249.41 85.22 207.26 153.57 198.64 163.47 197.4 163.47 197.4 219.74 190.3"/>
        <polygon class="cls-2" points="102.38 4.32 134.36 46.16 65.74 54.98 55.92 56.24 55.91 56.24 0 63.43 69.7 23.19 81.94 16.12 102.38 4.32"/>
        <polygon class="cls-1" points="52.07 65.48 25.57 129.01 21.76 138.14 14.02 156.68 10.09 166.11 0 190.3 0 72.16 52.07 65.48"/>
        <polygon class="cls-2" points="27.77 146.02 42.37 165.18 42.36 165.19 48.56 173.32 48.57 173.31 69.23 200.41 75.4 208.5 109.87 253.73 39.38 213.04 26.78 205.76 7.5 194.63 18.02 169.42 21.96 159.98 21.95 159.98 27.77 146.02"/>
        <polygon class="cls-2" points="109.87 0 179.72 40.32 192.09 47.47 212.2 59.07 191.92 107.36 165.48 72.76 165.37 72.61 159.28 64.63 159.28 64.64 150.26 52.84 144.18 44.9 109.87 0"/>
        <polygon class="cls-1" points="219.74 63.43 219.74 181.43 167.41 188.03 194.14 124.39 197.97 115.27 219.74 63.43"/>
      </g>
      <path class="cls-1" d="M109.87,185.7c-32.44,0-58.83-26.39-58.83-58.83s26.39-58.83,58.83-58.83,58.83,26.39,58.83,58.83-26.39,58.83-58.83,58.83Zm0-115.61c-31.31,0-56.78,25.47-56.78,56.78s25.47,56.78,56.78,56.78,56.78-25.47,56.78-56.78-25.47-56.78-56.78-56.78Z"/>
      <path class="cls-1" d="M55.07,108.48c5.26,5.21,12.49,8.43,20.48,8.43,16.08,0,29.11-13.03,29.11-29.11,0-6.64-2.25-12.74-5.99-17.64-20.48,4.02-37.07,18.86-43.6,38.32Z"/>
      <path class="cls-1" d="M149.37,98.46c12.71,16.07,13.05,39.35,1.65,56.21-12.62,18.76-37.45,26.63-58.34,17.71,20.22,7.01,43.94-.52,56.09-18.09,11.74-16.37,11.87-39.14,.61-55.83h0Z"/>
      <circle class="cls-1" cx="108.85" cy="125.58" r="5.73"/>
    </g>
  </g>
</svg>